<svg viewBox="0 0 820 400" xmlns="http://www.w3.org/2000/svg"><g><g><g><g><g><line x1="59.98000144958496" y1="378.60799980163574" x2="54.98000144958496" y2="378.60799980163574" style="visibility: inherit;" fill="rgb(0, 0, 0)" stroke="rgb(204, 204, 204)" stroke-width="1px"></line><line x1="59.98000144958496" y1="344.18909072875977" x2="54.98000144958496" y2="344.18909072875977" style="visibility: inherit;" fill="rgb(0, 0, 0)" stroke="rgb(204, 204, 204)" stroke-width="1px"></line><line x1="59.98000144958496" y1="309.7701816558838" x2="54.98000144958496" y2="309.7701816558838" style="visibility: inherit;" fill="rgb(0, 0, 0)" stroke="rgb(204, 204, 204)" stroke-width="1px"></line><line x1="59.98000144958496" y1="275.3512725830078" x2="54.98000144958496" y2="275.3512725830078" style="visibility: inherit;" fill="rgb(0, 0, 0)" stroke="rgb(204, 204, 204)" stroke-width="1px"></line><line x1="59.98000144958496" y1="240.93236351013184" x2="54.98000144958496" y2="240.93236351013184" style="visibility: inherit;" fill="rgb(0, 0, 0)" stroke="rgb(204, 204, 204)" stroke-width="1px"></line><line x1="59.98000144958496" y1="206.51345443725583" x2="54.98000144958496" y2="206.51345443725583" style="visibility: inherit;" fill="rgb(0, 0, 0)" stroke="rgb(204, 204, 204)" stroke-width="1px"></line><line x1="59.98000144958496" y1="172.0945453643799" x2="54.98000144958496" y2="172.0945453643799" style="visibility: inherit;" fill="rgb(0, 0, 0)" stroke="rgb(204, 204, 204)" stroke-width="1px"></line><line x1="59.98000144958496" y1="137.67563629150388" x2="54.98000144958496" y2="137.67563629150388" style="visibility: inherit;" fill="rgb(0, 0, 0)" stroke="rgb(204, 204, 204)" stroke-width="1px"></line><line x1="59.98000144958496" y1="103.25672721862793" x2="54.98000144958496" y2="103.25672721862793" style="visibility: inherit;" fill="rgb(0, 0, 0)" stroke="rgb(204, 204, 204)" stroke-width="1px"></line><line x1="59.98000144958496" y1="68.83781814575195" x2="54.98000144958496" y2="68.83781814575195" style="visibility: inherit;" fill="rgb(0, 0, 0)" stroke="rgb(204, 204, 204)" stroke-width="1px"></line><line x1="59.98000144958496" y1="34.41890907287592" x2="54.98000144958496" y2="34.41890907287592" style="visibility: inherit;" fill="rgb(0, 0, 0)" stroke="rgb(204, 204, 204)" stroke-width="1px"></line><line x1="59.98000144958496" y1="0" x2="54.98000144958496" y2="0" style="visibility: inherit;" fill="rgb(0, 0, 0)" stroke="rgb(204, 204, 204)" stroke-width="1px"></line></g><g transform="translate(49.98000144958496, 0)"><text style="text-anchor: end; visibility: hidden; font-family: &quot;Helvetica Neue&quot;, sans-serif; font-size: 12px; font-weight: 200;" x="0" y="378.60799980163574" dx="0em" dy="0.3em" fill="rgb(50, 49, 63)" stroke="none" stroke-width="1px">-0.08</text><text style="text-anchor: end; visibility: inherit; font-family: &quot;Helvetica Neue&quot;, sans-serif; font-size: 12px; font-weight: 200;" x="0" y="344.18909072875977" dx="0em" dy="0.3em" fill="rgb(50, 49, 63)" stroke="none" stroke-width="1px">-0.07</text><text style="text-anchor: end; visibility: inherit; font-family: &quot;Helvetica Neue&quot;, sans-serif; font-size: 12px; font-weight: 200;" x="0" y="309.7701816558838" dx="0em" dy="0.3em" fill="rgb(50, 49, 63)" stroke="none" stroke-width="1px">-0.06</text><text style="text-anchor: end; visibility: inherit; font-family: &quot;Helvetica Neue&quot;, sans-serif; font-size: 12px; font-weight: 200;" x="0" y="275.3512725830078" dx="0em" dy="0.3em" fill="rgb(50, 49, 63)" stroke="none" stroke-width="1px">-0.05</text><text style="text-anchor: end; visibility: inherit; font-family: &quot;Helvetica Neue&quot;, sans-serif; font-size: 12px; font-weight: 200;" x="0" y="240.93236351013184" dx="0em" dy="0.3em" fill="rgb(50, 49, 63)" stroke="none" stroke-width="1px">-0.04</text><text style="text-anchor: end; visibility: inherit; font-family: &quot;Helvetica Neue&quot;, sans-serif; font-size: 12px; font-weight: 200;" x="0" y="206.51345443725583" dx="0em" dy="0.3em" fill="rgb(50, 49, 63)" stroke="none" stroke-width="1px">-0.03</text><text style="text-anchor: end; visibility: inherit; font-family: &quot;Helvetica Neue&quot;, sans-serif; font-size: 12px; font-weight: 200;" x="0" y="172.0945453643799" dx="0em" dy="0.3em" fill="rgb(50, 49, 63)" stroke="none" stroke-width="1px">-0.02</text><text style="text-anchor: end; visibility: inherit; font-family: &quot;Helvetica Neue&quot;, sans-serif; font-size: 12px; font-weight: 200;" x="0" y="137.67563629150388" dx="0em" dy="0.3em" fill="rgb(50, 49, 63)" stroke="none" stroke-width="1px">-0.01</text><text style="text-anchor: end; visibility: inherit; font-family: &quot;Helvetica Neue&quot;, sans-serif; font-size: 12px; font-weight: 200;" x="0" y="103.25672721862793" dx="0em" dy="0.3em" fill="rgb(50, 49, 63)" stroke="none" stroke-width="1px">0</text><text style="text-anchor: end; visibility: inherit; font-family: &quot;Helvetica Neue&quot;, sans-serif; font-size: 12px; font-weight: 200;" x="0" y="68.83781814575195" dx="0em" dy="0.3em" fill="rgb(50, 49, 63)" stroke="none" stroke-width="1px">0.01</text><text style="text-anchor: end; visibility: inherit; font-family: &quot;Helvetica Neue&quot;, sans-serif; font-size: 12px; font-weight: 200;" x="0" y="34.41890907287592" dx="0em" dy="0.3em" fill="rgb(50, 49, 63)" stroke="none" stroke-width="1px">0.02</text><text style="text-anchor: end; visibility: hidden; font-family: &quot;Helvetica Neue&quot;, sans-serif; font-size: 12px; font-weight: 200;" x="0" y="0" dx="0em" dy="0.3em" fill="rgb(50, 49, 63)" stroke="none" stroke-width="1px">0.03</text></g><line x1="59.98000144958496" y1="0" x2="59.98000144958496" y2="378.60799980163574" fill="rgb(0, 0, 0)" stroke="rgb(204, 204, 204)" stroke-width="1px"></line></g></g><g transform="translate(59, 0)" clip-path="url(#clip_0)"><clipPath id="clip_0"><rect width="760" height="378"></rect></clipPath><g><g><g><line x1="0" y1="0" x2="0" y2="378.60799980163574" fill="rgb(0, 0, 0)" stroke="rgb(60, 60, 60)" stroke-width="1px" opacity="0.25"></line><line x1="58.46307681157039" y1="0" x2="58.46307681157039" y2="378.60799980163574" fill="rgb(0, 0, 0)" stroke="rgb(60, 60, 60)" stroke-width="1px" opacity="0.25"></line><line x1="116.92615362314078" y1="0" x2="116.92615362314078" y2="378.60799980163574" fill="rgb(0, 0, 0)" stroke="rgb(60, 60, 60)" stroke-width="1px" opacity="0.25"></line><line x1="175.38923043471118" y1="0" x2="175.38923043471118" y2="378.60799980163574" fill="rgb(0, 0, 0)" stroke="rgb(60, 60, 60)" stroke-width="1px" opacity="0.25"></line><line x1="233.85230724628155" y1="0" x2="233.85230724628155" y2="378.60799980163574" fill="rgb(0, 0, 0)" stroke="rgb(60, 60, 60)" stroke-width="1px" opacity="0.25"></line><line x1="292.31538405785193" y1="0" x2="292.31538405785193" y2="378.60799980163574" fill="rgb(0, 0, 0)" stroke="rgb(60, 60, 60)" stroke-width="1px" opacity="0.25"></line><line x1="350.7784608694223" y1="0" x2="350.7784608694223" y2="378.60799980163574" fill="rgb(0, 0, 0)" stroke="rgb(60, 60, 60)" stroke-width="1px" opacity="0.25"></line><line x1="409.2415376809927" y1="0" x2="409.2415376809927" y2="378.60799980163574" fill="rgb(0, 0, 0)" stroke="rgb(60, 60, 60)" stroke-width="1px" opacity="0.25"></line><line x1="467.70461449256305" y1="0" x2="467.70461449256305" y2="378.60799980163574" fill="rgb(0, 0, 0)" stroke="rgb(60, 60, 60)" stroke-width="1px" opacity="0.25"></line><line x1="526.1676913041334" y1="0" x2="526.1676913041334" y2="378.60799980163574" fill="rgb(0, 0, 0)" stroke="rgb(60, 60, 60)" stroke-width="1px" opacity="0.25"></line><line x1="584.6307681157039" y1="0" x2="584.6307681157039" y2="378.60799980163574" fill="rgb(0, 0, 0)" stroke="rgb(60, 60, 60)" stroke-width="1px" opacity="0.25"></line><line x1="643.0938449272743" y1="0" x2="643.0938449272743" y2="378.60799980163574" fill="rgb(0, 0, 0)" stroke="rgb(60, 60, 60)" stroke-width="1px" opacity="0.25"></line><line x1="701.5569217388447" y1="0" x2="701.5569217388447" y2="378.60799980163574" fill="rgb(0, 0, 0)" stroke="rgb(60, 60, 60)" stroke-width="1px" opacity="0.25"></line><line x1="760.019998550415" y1="0" x2="760.019998550415" y2="378.60799980163574" fill="rgb(0, 0, 0)" stroke="rgb(60, 60, 60)" stroke-width="1px" opacity="0.25"></line></g><g><line x1="0" y1="378.60799980163574" x2="760.019998550415" y2="378.60799980163574" fill="rgb(0, 0, 0)" stroke="rgb(60, 60, 60)" stroke-width="1px" opacity="0.25"></line><line x1="0" y1="344.18909072875977" x2="760.019998550415" y2="344.18909072875977" fill="rgb(0, 0, 0)" stroke="rgb(60, 60, 60)" stroke-width="1px" opacity="0.25"></line><line x1="0" y1="309.7701816558838" x2="760.019998550415" y2="309.7701816558838" fill="rgb(0, 0, 0)" stroke="rgb(60, 60, 60)" stroke-width="1px" opacity="0.25"></line><line x1="0" y1="275.3512725830078" x2="760.019998550415" y2="275.3512725830078" fill="rgb(0, 0, 0)" stroke="rgb(60, 60, 60)" stroke-width="1px" opacity="0.25"></line><line x1="0" y1="240.93236351013184" x2="760.019998550415" y2="240.93236351013184" fill="rgb(0, 0, 0)" stroke="rgb(60, 60, 60)" stroke-width="1px" opacity="0.25"></line><line x1="0" y1="206.51345443725583" x2="760.019998550415" y2="206.51345443725583" fill="rgb(0, 0, 0)" stroke="rgb(60, 60, 60)" stroke-width="1px" opacity="0.25"></line><line x1="0" y1="172.0945453643799" x2="760.019998550415" y2="172.0945453643799" fill="rgb(0, 0, 0)" stroke="rgb(60, 60, 60)" stroke-width="1px" opacity="0.25"></line><line x1="0" y1="137.67563629150388" x2="760.019998550415" y2="137.67563629150388" fill="rgb(0, 0, 0)" stroke="rgb(60, 60, 60)" stroke-width="1px" opacity="0.25"></line><line x1="0" y1="103.25672721862793" x2="760.019998550415" y2="103.25672721862793" fill="rgb(0, 0, 0)" stroke="rgb(60, 60, 60)" stroke-width="1px" opacity="0.25"></line><line x1="0" y1="68.83781814575195" x2="760.019998550415" y2="68.83781814575195" fill="rgb(0, 0, 0)" stroke="rgb(60, 60, 60)" stroke-width="1px" opacity="0.25"></line><line x1="0" y1="34.41890907287592" x2="760.019998550415" y2="34.41890907287592" fill="rgb(0, 0, 0)" stroke="rgb(60, 60, 60)" stroke-width="1px" opacity="0.25"></line><line x1="0" y1="0" x2="760.019998550415" y2="0" fill="rgb(0, 0, 0)" stroke="rgb(60, 60, 60)" stroke-width="1px" opacity="0.25"></line></g></g></g><g><g><line x1="0" y1="103.25672721862793" x2="760.019998550415" y2="103.25672721862793" fill="rgb(0, 0, 0)" stroke="rgb(153, 153, 153)" stroke-width="1.5px"></line></g></g><g><g><line x1="58.46307681157039" y1="0" x2="58.46307681157039" y2="378.60799980163574" fill="rgb(0, 0, 0)" stroke="rgb(153, 153, 153)" stroke-width="1.5px"></line></g></g><g><g><g><g><g><path style="fill: none;" stroke="rgb(255, 112, 67)" stroke-width="2px" d="M58.46307681157039,90.82833154537713L58.49182115766941,98.81949742756939L58.691813599595655,22.41253852501535L58.72981459952318,48.48959132624418L58.82928302882065,89.6795783805942L58.86054453517128,97.20735214652876L58.93605934271956,127.24442935349049L59.00816380412049,39.02679921987914L59.03430979125011,222.56228785057976L59.080105868085845,106.57002194481458L59.14335966924725,102.81546747934584L59.26694411772948,110.52420531168411L59.870250590937765,88.99700636516002L59.9080891934297,236.66391151255183L60.00146771889263,158.93086706985514L60.257243679943244,110.0939562955208L60.28671881450242,84.50727776742428L60.40461935273908,112.15448096649129L60.51228885253372,297.37360280249544L60.55654215373137,164.50637326017267L60.616629204898814,266.0718443370821L60.73225617903726,155.50940795493557L60.80833937761009,114.63680666522697L60.97333517216719,99.70004623207586L61.00857541568972,77.63862155795846L61.04600802459269,40.827919948253225L61.08733817194975,307.35819989089543L61.105851479606756,36.23503876140427L61.267599325452096,63.27831016972101L61.37705519703821,113.54291326456439L61.47830999812713,166.3998990572363L61.56965855564522,209.57827660698058L61.598078106873054,49.46632297841239L61.62276251708239,78.00723206335613L61.657921561887115,58.86915316693944L61.84484101024856,162.31250147578942L61.90062452937293,251.21967381477253L61.950480542098354,133.8506076742055L62.02859370861604,222.50256350317562L62.11336516999281,198.4339579006422L62.38188932973707,135.80908262899982L62.59893350240002,45.890108878783735L62.659832540745406,73.16036905419799L62.76985680335606,163.16477664154328L62.81411010455373,109.87545236339639L62.87427835443896,227.28367005855768L62.90562105950739,77.79672348888005L63.217667731989145,163.18894616087636L63.696334173383875,141.3091996436556L64.03769358298922,183.44306045823132L64.2556309415479,130.324577998067L64.82678272250983,-160.53271636054944L65.00720627344775,17.03178434984244L65.20183959999962,14.419988243942043L65.29107699085505,45.75977445335434L65.39525494578456,260.6305151459656L65.62269255432513,-77.07364841774597L65.69601499649296,-35.704643557903864L65.76690147712698,346.28236428673506L65.87051104103195,0.8313298378837999L65.92467058580044,-11.705722370542958L66.10972246365263,-0.12340896181405014L66.65554024466287,51.88262110019707L66.85236593659515,96.14877427202532L66.99665605811482,-88.33723810500794L67.21800376282086,98.55800208604933L67.32616045492226,102.41884270473167L67.4300136149806,159.10030383911007L67.9327148768423,76.4124123530101L68.0527265817416,63.249293292388074L68.34211881195888,233.55304151727205L68.40106908107721,123.48679401521889L68.43338617075916,106.97251395583999L68.61202334990563,312.73519895016955L68.68006787541687,135.4599294037384L68.80495150338382,234.10433052745353L69.52185498278568,189.5492161766113L69.66874346327477,143.88951362363585L69.75416451439388,137.9928261009783L69.89569387950857,131.6517989763766L69.99646148829072,127.95458038287947L70.33229938508609,95.35949732644838L71.18309955013002,400.0791688675359L71.22905802440134,215.86486918528803L71.27615328072177,35.26865812917043L71.73273367087657,184.70824073180893L71.7838888630867,381.91077215483057L72.02902779210633,177.61593719492353L72.57419598337422,109.19485331344669L72.71808011130493,95.05331151559193L73.01023309792718,157.27102848765236L73.039058642744,91.0577370705301L73.26836382179383,122.86518203173219L73.53510160974662,245.17887726625972L74.65556271658393,452.17817129665605L75.53981675335892,192.85772325878256L76.27450275195766,134.91116701235333L76.52524439250506,171.96667182908973L76.64842284739832,132.88517200810534L77.71196365306216,150.72315103837443L78.34588204287871,377.76563299378256L79.20626365662233,180.99655199847064L79.56889713028966,120.73866630078209L80.56829094889632,129.4062214110404L80.93124921743483,109.86551032685077L81.58701006233794,277.4631121281502L81.81136211960235,190.64328024300903L82.20070997142386,120.78649998502846L82.9245153418382,105.61797946447177L83.2824392898735,69.81801766278625L83.92382796172708,95.60231115640693L84.28435026873177,163.1077909171906L84.6443041847119,116.86465535415283L85.73675173391032,93.37568241731577L86.8296864754155,56.280679368029496L88.55442844007463,250.08944021851414L89.24843388105865,107.1076443966034L89.93537503359461,215.26361392155613L90.30482919955662,140.47666458336835L91.878216754248,249.69739963384544L92.89774785486756,127.99706641918505L93.26509085416691,117.51526901801691L93.51664448189226,264.6802174772031L93.88512426324074,264.33880888772524L94.60795524904157,174.79935104751573L96.10834515643627,116.16872486697343L96.5372367838234,243.74176561530066L97.21841282739598,273.6544775814052L97.9610563003385,160.19826190946517L99.80572877117916,114.51856132956482L100.33335803940358,334.59758952543166L101.80411041480353,169.23634173239805L103.32293243113746,175.7721997830813L103.99200986575877,161.86076530277262L104.35423734583712,157.43886632137043L105.46430501679683,112.40783774631007L106.17260143211256,166.04208033030392L106.52784582246062,197.0513791204528L106.88674415510944,144.28900108519755L107.24783485313867,319.0267788170607L107.63101160240784,175.97427233417199L107.99543144786665,218.96912026218016L109.46845738736481,109.29845935351676L109.85577527124147,161.2265758521972L110.57706348140424,81.59393410835764L111.4841343578793,150.9040140434184L112.94319411791695,123.27290076438874L113.29486576468211,116.31951392213591L113.65538807168679,78.30507760900917L114.03369289788834,69.02250025134083L114.52242798028949,-34.84649329755956L115.45913638875933,75.82127423923288L115.81494917013197,77.45875122236095L116.2012114706773,90.5102293942399L117.24835013534677,198.5818341815442L117.61626152567068,158.05813046059183L118.37636272293891,135.2624890430346L120.43702378311116,129.23038726857303L121.16066675608994,105.52095342885116L122.19383924129886,157.70596830243755L122.58050753543316,98.7657696868419L123.21978504062412,175.462682195529L123.57559782199675,105.34669298502024L125.13672437030128,197.9109314208044L125.48961399783333,245.62802561862983L126.2027011374989,226.75069477806153L126.92731849509121,225.39592487318745L127.28434925723077,159.2494747350135L127.59079321818473,227.53033644231482L128.6724413379166,194.4415430160512L128.84823656194027,217.84825180965385L129.64016765658369,153.67372351153796L129.77008560505382,457.9399648436395L130.43356032814734,264.3227028116393L130.72814927630344,158.65488343490279L131.47785703769404,153.095432927469L132.69055988794514,92.06245841947833L133.00179457324896,74.21062077758972L133.39780071992956,122.00752574660174L134.13589706467565,203.83815349305547L134.32728244251572,331.6603665452642L135.42013598530312,185.06056268264246L135.80712907430862,134.24903102609744L136.1687881633624,134.28373138363798L136.53142163702975,153.84044154340475L137.25311584078145,186.31764442029368L137.61639890419113,146.58709230089664L138.00501596755248,108.11563584935936L138.36951701172907,159.98186592047924L141.66529176826353,90.94329053803233L142.0170446137465,118.54230651751436L142.77097470846238,95.87969525276361L143.7261964245892,105.2294211583843L146.27916531074558,124.11519187324632L146.63595247673175,56.595811254163095L148.1196154482609,87.56365456388704L148.48452248602644,66.91412600368272L148.85154069045464,102.13944957856933L149.61732579796842,98.07272927712398L150.35038782221127,102.10769377409042L151.8364055565565,122.77708832733254L154.91757210196187,103.48497873309174L155.27379087692347,161.37368632666406L155.5754441135276,251.0305084540713L155.9625184012509,239.49290435751556L156.7052430729112,235.94148963571985L156.99016937364982,156.27263207802815L158.0910615894988,251.1323346851267L159.19966768353822,248.52832352192917L161.635872813507,197.79877083272544L162.0111732871502,236.66055823605808L162.31883522887108,157.77996795748794L162.65174997182584,58.97422944682427L163.23581234891702,157.71344742308275L163.54185031628202,105.40745541750692L163.79600230297677,79.8373309502391L164.54018855155738,75.59039678047003L164.80952469847955,74.22015462213648L165.13862310169804,127.67226284862502L165.86884317081808,95.56713356381931L166.5662589579495,112.15902288846769L166.94107223928586,260.65567906715546L168.36261819170275,236.25720401952265L170.79784893705803,101.2921623512126L171.88875371061837,289.0831225412491L172.24984440864762,152.88263170622338L172.95318770217793,195.707213530913L173.67033477773322,135.60210908112012L174.77203898076013,231.33640379205997L178.63198242852624,210.3929455334383L179.66369333681487,167.56535339664217L180.01666416306475,128.16727083430177L180.3572927842099,29.5052553260972L181.06583279567906,71.0053857099901L181.75098757642354,68.49600715813784L182.09088540910858,73.65304952532506L182.78748920906202,43.33155703602915L184.49599143016238,140.6044604813736L184.86804395509378,222.268692820824L186.90434539992788,158.18725635064143L187.64617688569248,62.01209939527331L188.01733622472815,83.76491402835228L188.36072560227834,101.98654321926216L188.71816235800685,216.94495696697984L189.07803507526918,129.50445941302084L189.46242980530525,206.61327719578767L189.81182788797219,156.12448397996576L190.16780306678044,91.40712337450742L190.51882512380323,67.7842492915268L190.87098396287513,143.9676985007717L191.604045987118,44.973379506736705L192.67026635046903,84.08111744357348L193.04053250360897,44.46092508094455L193.41031146444217,43.895802537116595L194.14499746304088,90.53076057381116L195.56654341545777,105.18742690651675L196.1861708309426,91.18876147543216L196.82252518229302,202.5036210548797L198.23960520523127,130.05380968935046L198.5295658264731,74.67836724003138L198.88107507580264,76.03461053845814L199.5902646770141,98.1959038575626L200.29320197695546,107.15527096465217L201.02090488582388,130.40213429275457L201.73155606395568,134.72989800220262L202.08144133892932,145.59611468306176L203.15212763175904,123.55475407913079L203.76387877161787,123.78595628295366L204.11043489916202,63.83791227762481L204.40721621269856,92.54627054024087L204.61402934691947,106.11237967812121L204.99038540389398,52.293286096437896L205.3371039288737,32.172416525737674L205.94276516489796,80.18200922952656L206.28412457450332,170.10270235808485L207.8156135908131,182.1709315926616L208.08275737235485,159.0773262527884L208.6328786854082,121.72665019031018L208.91642460794426,221.18449421367103L209.14353742161367,78.73549474356093L209.78460129859616,152.98398061374968L210.31572211168566,31.021835705871922L210.81850457226517,106.31594879745188L211.00526162319105,437.3713686898595L211.3724422250548,330.9019848608044L211.86929717923536,231.78288190395364L211.9660860508456,399.5542870639896L212.12393635823685,219.33298058768148L212.77807322878408,97.60372141635798L213.68481931038798,118.44929409972139L213.84478078444187,131.9626618481203L214.4529591807178,155.03702883417708L214.78067720573375,131.3006958113889L215.31301599959022,57.3272494527896L216.70939034949106,98.65037193626154L218.43072196800279,112.31094401062006L220.98604561697516,165.5454297365913L221.3542818021703,48.2091974430063L222.0843394738548,91.07981567433154L222.4524132616143,120.82178205315535L222.81878187630014,128.14513442006975L223.2069929460725,97.99904019315113L223.56978881717544,55.25587182925989L223.932341092125,82.41923706666597L224.66840746892618,150.90602299796743L225.0327461156672,55.96641295650909L226.52461015769353,25.166071307520838L226.8986926505698,129.11557385747656L227.63484022608884,88.73318131225273L228.40907000025314,164.5772421835638L229.50557748534132,132.68793796508533L230.2635675159469,112.7121547469419L230.6342396626758,228.8453711967459L231.00669818119616,156.07803423063513L232.12975764700286,111.33095097863065L232.50172897321653,90.73830297031105L232.91145770320423,42.49441227663078L233.18444779242716,146.0554929765097L233.5502480160884,95.43085115547552L234.29703262363842,111.88455002466304L234.67176470625705,136.94404118393425L235.0745103465145,142.33494444502884L235.81260669126064,216.31850919208333L236.17280420339412,126.27722896156874L236.5529766001049,156.9055884709122L236.92316155452704,150.57905009219408L237.2917225345934,136.91477929895947L237.6899210466544,155.532040825581L238.428585782425,140.45228629842316L238.79998871761407,161.34357208539706L239.92515935008342,136.80803849372484L241.3671673793844,140.93622526645515L242.4709827490739,167.92999511177908L242.82939388941594,253.9436281818477L243.18374509386837,61.47680227996102L243.91843109246702,151.35322125462227L244.29519314303047,178.91411851989682L244.67471594999896,170.22987570554153L245.03361428264776,260.3704144430426L245.75563328127066,110.13577393830587L246.1111212677721,152.26967755856032L246.466852850427,173.39735670623494L247.9117028348507,121.827105769752L249.320500588574,114.73836424258923L249.66039842125898,62.71493868777054L250.34587799687466,76.84094576863367L250.68658781673767,70.2646002263852L251.02754123275403,17.797476818749374L251.3947218346178,89.88464693477243L251.740465974984,72.75907692542773L252.0863725127858,113.89844833702381L253.10298045956475,115.42846204858512L253.46780629861254,208.4055177994546L255.51312080112174,169.29884170269202L256.234977402309,93.36362495862727L256.58242671574897,123.84044734660702L256.92719647150165,26.7498344293752L257.28138527851837,198.41103754963774L257.9937416297238,129.0020817054953L259.033897204663,78.0057348204599L259.37769257580214,56.83591557219245L260.4214208943243,95.05474432704062L260.77163096416916,124.94986214219549L261.1199734635048,143.21405982389658L261.79351682760466,185.96171414895105L262.49905248651544,203.44556794796793L263.53539172171827,112.7068745335472L263.883328227465,47.72486646747319L264.5939794055967,95.44006899420634L265.6275578843946,257.43598823710477L265.9765499734726,184.15851278568414L266.32537966511495,241.14232546476399L267.03659923427125,187.96581429048965L267.3827493682264,165.36695325021006L267.7250019637275,68.36338564160224L268.4108875329321,126.98458735779303L268.7645079489243,146.83958925395072L269.1483342879358,205.13627164017046L270.8682043295274,147.51145648027497L272.2792756473488,173.1582860877683L272.62404540310155,197.08157152469792L273.3168328633186,216.5962647352589L274.0311379837511,282.50213631489754L274.70427535426205,150.9320762681436L275.0408440395176,105.966710823666L275.38301543630087,84.24846739189047L275.7572603266127,66.65136647607056L276.10032490929177,44.85047232630063L276.437786780443,13.066551078077111L277.11904402273336,130.97980803036526L277.8180025855027,56.72267982397909L278.51468758417394,94.63485821436285L279.52739799249883,157.0944422226308L280.2307412860292,87.82341352021882L280.5790837853648,70.55912904947019L280.9223107654793,88.55213028006841L282.30341975643495,90.62629711273962L282.9853265884677,65.6834284528992L283.33699823523284,82.0766675278964L284.0181742788054,52.89507411102517L285.06945407808234,95.09238494509725L285.72813807682604,81.65679105027453L286.067305121051,128.58397125971257L286.4118312806502,102.00878052087262L287.4678206055592,163.6377515052266L288.49628356513614,106.37177665925662L288.8248947760478,73.37078603311585L289.4528856594654,189.6278680100724L290.14640390814264,212.7333473832109L290.8179173042978,64.4374948189083L292.56174096763846,70.55427911920304L293.2326047740512,142.0392673403391L293.60181534385987,124.85763749114659L293.954298977803,77.80455401944334L294.30353466303427,45.985004227605145L295.33857471875245,66.08734310167017L297.42359539426286,57.660403052165464L298.14366562365876,115.73032187851811L298.4851062319819,134.46934607550946L298.8278460197897,96.904721268804L299.16944902554843,107.71369253664159L299.50601771080386,154.09918275450352L300.9033664453182,177.7996313775681L301.5910383863144,61.7683342235668L301.9345089625823,97.59753747410417L302.9971565823504,100.24985374485505L303.33502444709063,112.60724190052963L303.6780890297696,211.4074687569464L304.01896124706815,141.77877479057003L304.3587778810354,68.76531115397864L305.07941650145585,45.84563343103463L305.42045111619,356.3752024097558L305.75401544888706,192.09680795204815L306.09675523669495,80.90783703378048L306.80578244047086,100.88078992261353L307.8268563167284,65.75352141855251L308.5153402449025,110.11334346760475L308.8768369365207,89.29920020793139L309.5669448390506,172.13810184527034L309.9136633640303,252.84409266757945L310.95820366973044,216.13828777815021L311.3283074254348,166.730849185775L312.0010388023568,106.79363766760673L312.34751373118314,57.161210715849734L314.78355646371637,88.58514362588733L315.1294630015181,63.09487098816845L315.4661940842093,46.33635195324189L315.8338618783798,184.15943990149725L316.17773844823677,123.59325823624027L316.52559375526556,42.58566787987888L316.86703436358874,17.66759795464776L317.5627449776464,10.657415140395187L317.93431031027103,48.49630133380447L318.28143482883974,124.37597138445301L319.3224023909569,132.81254937210892L319.6909633710231,108.08461666383829L319.9897746525045,53.52481063040591L320.357442446675,116.66941935833745L320.92469668918284,49.227413018065704L322.59251835266855,100.63656000568113L322.83514012143655,40.89587882742234L323.087830531211,184.96646046755785L323.53531666497287,187.777625177364L324.75849414981934,141.80716138280522L325.5737292764696,93.67614460283272L326.5526610181922,151.5877646860843L327.93490679119685,154.73297006180428L328.96450653282284,60.43299594177256L329.36075627565685,87.40941606901254L329.70641921730527,90.11548482510574L330.4103309018602,32.32624758749864L330.75177151018335,63.42664604305202L331.0974344518317,143.84101545725426L331.87085223881814,139.6042618177275L332.2131048343192,174.20194862792118L332.92132005091713,202.95054857856127L333.63749274185886,99.32922874650103L333.98234369632934,61.42340816109947L334.63859173353916,80.6912599280468L335.33275957195883,23.51004007051199L335.6795592956563,110.28454340011069L336.3984927430031,104.20453231273353L336.9910809854626,106.90309440736098L337.3481117476021,119.99104109925031L337.7204078686869,88.11665900124166L338.0634724513659,234.04447491040014L339.03144236618635,171.89796863605332L339.3845755898718,154.87273930175454L339.72707178152626,154.75550195925152L340.80311718973036,111.36047875616703L341.14788694548304,141.385621526195L344.00064149773425,101.72328592498485L345.0762809123494,145.60780818590217L345.4603508475143,89.07770975204136L346.1537878974737,95.95058180197162L346.86825541534176,33.31809545265645L347.21440554929694,87.55640365984806L348.29483568826186,57.38289252394969L348.64821250810076,156.51105282525882L349.35391056444706,72.91299873517573L349.7296170316792,72.47308203477269L350.09176331303973,139.29871606116998L350.3352782677035,149.39570799182104L351.38607087467363,119.79608847060825L354.2154401962003,112.89812265776948L354.58189000960397,106.09542607808038L354.9451730730136,182.19085159086697L355.64949075115743,100.72884243189509L356.3527528459699,178.5003723751971L356.72983969140455,62.3404423660067L357.09596470993705,72.94876895147132L357.80271834961474,102.44920761003152L358.50825400852545,112.24131653869881L358.85529732837637,123.64620554105883L359.2340893468846,127.89131371893507L360.28748031282424,163.75655513022633L360.64004514548515,162.60522170131097L360.99155439481467,108.66735140017306L362.79181116702205,71.90493144962227L363.5129369797492,85.76618991060735L363.8849083059628,223.6141087088047L364.585166048217,119.1243208789997L364.9404104385651,52.199303381539266L365.6319799180153,48.54184273879537L367.770835343423,103.00058901056661L368.15628565679043,81.58783314470963L368.88009102720474,41.77918729129465L369.599998859165,101.88038517487905L371.0780591191665,84.38465419166175L371.79325742549463,180.84514928160348L372.50285302029505,73.37062276894L373.2340474740287,42.45317192380526L373.9433994726757,36.446958273821735L374.6647688815563,86.24968102410816L375.0187952911375,93.86528230600169L375.3941769634984,147.66042288069244L375.7592463986996,23.45093254113766L376.11692675058146,51.49560555239833L377.571682978576,196.71940918844376L378.3032022271808,181.35725451458345L378.65787822650435,98.028813516725L380.8439101069503,192.4381066413768L381.5736429837636,79.03207408708084L382.3237567387432,50.6784790968328L382.6867962059994,35.099854731052744L383.0649386347654,93.71750653756675L385.21751664348034,4.898026872521086L386.2843053978559,59.10842038091113L387.01420067210483,66.77134076385306L388.11712285589863,141.08472788795677L389.1855355846301,135.11027671967847L389.580648545415,107.04353716790632L390.2926801017492,90.89106992778494L390.64410815236096,67.13848895044265L391.00146370937176,178.338391839256L391.35289175998344,92.97945233122266L392.08830854704235,82.05319884813514L392.44874965532927,56.61380457212044L393.16362316678624,146.08486025199696L393.51976074303013,89.49272463803175L393.8745991397892,126.19371816342684L394.9903507209945,67.45457597229148L395.36548879720203,95.62598424627299L396.02863872542434,193.2411469807321L398.9114368032594,204.52004492302578L399.27504466154016,160.27559207890707L399.62842148137906,124.28048867880409L399.9807427178865,75.61143727208008L401.0612540555693,60.97152931259217L401.42047718308925,66.146663178962L401.7759651695908,58.75465497673372L402.8648399752063,72.59557242283267L403.2155372373579,137.8391014328272L403.596359223811,179.2525560017119L404.6701310679169,147.12654890396826L408.9851121301997,144.19442571319092L410.05482403841586,119.6622841000709L410.6878492423367,140.30513772251052L411.0404140749976,92.23736014770765L411.6404725994941,205.87272787619966L412.00724720776896,88.8138139353747L413.1178020710354,124.39813164444737L414.2095188317736,172.80859839137077L414.5706095298029,70.97382307587054L414.93015745219407,52.333368472564075L415.31203502197855,29.926125679215488L415.67198893795864,150.6441026766767L416.02033143729426,195.46965734048788L416.37435784687545,112.0422712912902L416.7328501859353,96.76895424906087L417.46859176786535,143.41078444140194L418.18159770881306,151.44975148114656L418.42771102244626,717.645625294221L419.13487065571286,311.3077912222635L419.8683386735447,270.27275938727917L420.42089594813183,465.5577229276382L420.8017991333028,304.97071006471015L421.1550135557061,153.90455919098883L421.50733479221356,70.21868880696826L421.87516498381973,147.0521877053827L422.266948797175,134.56355481422523L423.69978137136525,92.41533188094837L425.51782066276945,145.40093845839118L425.8779369761852,134.99313518876681L426.58395982740274,177.0939477665656L426.9649442112914,183.5551073851376L428.4038666893162,207.18504785967292L428.76284622068283,157.5338369716003L429.1476469443079,150.0986429511302L429.8535885968076,166.72157682487287L430.80012205013037,179.6757411762373L431.90093306726163,169.86624502588353L432.6188109312771,193.77367905410853L433.33360324401633,118.18888475212759L433.69152719205164,135.88886941602942L434.4224780496318,108.68572294131133L434.7785344271578,72.30080719614188L435.70687936769485,102.40890575677116L436.0850217964608,183.74441248962412L436.4487920521772,217.97318661754574L437.1736530059229,194.93919862981164L437.5392908321486,170.21217153186512L437.89412922890773,187.16067097420643L438.5197653495094,151.40846683955573L438.87281737447694,151.11093497556962L439.1938771046339,172.87426794689682L439.5062485719868,141.6829212504069L439.8689632443719,126.08525677942694L440.1936769168295,172.1297869202805L442.02787475307474,63.23268794858467L442.38320034214064,63.856249252136706L443.15653693040923,109.70537455372119L444.5819804212802,107.33411260844463L444.93389566419876,133.92247093839248L445.68685137430106,119.18414329871206L447.0096596858807,241.834469167566L447.73021710758326,198.31419470562017L448.4795188753849,186.53902245331736L449.191225636848,244.15681387457616L449.55710705922706,176.97108460121513L449.9043127765136,195.96094445828052L450.2843227757888,183.93646643342208L450.99968347955263,183.83099041002876L452.0552668108725,151.205388922167L452.40336571405487,132.22102004739745L453.1411372639297,147.27476816944838L453.5007663850387,77.98758893474832L453.8623442753747,116.43686224915331L454.59703027397336,86.95470114373455L456.0518677006858,66.37539018567406L456.75472380190934,230.13313837265326L457.1067202435457,150.2121508459131L457.85537242160495,189.7206727685074L458.2271001516652,207.145528862207L459.28300827785637,189.39435607857826L459.6641550591807,229.2483167054361L461.43258193401283,142.5206673015078L461.7991129461343,77.70346082729702L462.1912215543608,229.2019455974815L462.5571029767399,97.58061823487503L463.2675105587183,96.57256320982725L463.8560388652881,76.12022144332803L464.20714212102865,160.0339642795639L464.51350488326483,108.61179145056053L464.8692364659197,42.3174026793601L465.2207457152492,124.55554749906241L465.5374207146453,134.25491835687728L466.4386452834392,126.67812465302683L467.4588259738011,216.7822223665253L467.99051517791526,245.22693187463122L468.56816285630066,312.39537286223145L468.7853694263992,366.8488871152108L469.1160106052558,261.8520650586361L469.3700813932327,228.91674849302538L469.61156637995157,210.27702737936585L470.61713130111065,286.19262950902447L471.68205248497696,358.95040563576805L472.11240568928434,112.06437610815249L472.30598343250483,138.5861897521677L472.8990588672711,205.71783670626664L473.1819552000649,145.5216795790507L473.41588870602885,84.27684148172978L474.00051947414465,116.65484678621777L474.82687882513267,211.27782512698585L475.05504722213334,173.82151143536694L475.2472445871514,132.805951453019L475.7756858425537,142.34080291588285L476.0049910216036,105.8393742329992L476.3150077261405,111.28760757489943L477.19625741035713,217.67728000131189L477.7121940632192,144.26508805571896L477.9518114794289,168.9488990755591L478.166825684147,312.452761174039L478.4051439208719,273.5336972133954L478.6948609459604,227.25597254432392L478.9235165352679,249.35443223997L479.6043677839693,177.83602361287683L479.9118673282545,262.1944205222763L480.9496681403777,157.92614668396746L482.60011327825544,131.95423447973425L486.9081112508081,153.88073185287868L487.1718446862025,147.2467368863298L487.5591625700791,163.69895138491552L487.9315398898818,154.68689771736777L489.43022462420276,107.06798197969545L490.5571816284636,165.65208866616354L490.94937143540784,144.5700252924099L491.6508471584289,188.19754856018702L492.0250920487408,262.12960513639723L492.3962513877765,293.53229226852596L492.76473116912496,191.0243000157328L493.5517091419829,266.2254749207769L494.26268511498586,198.83936664813905L494.6327888706902,152.3492201342756L494.9380148508773,133.4490463941681L495.6567859007884,168.57998540752075L496.07008737435905,252.58863928505636L496.4547257005485,272.9327494388708L497.1937964299081,184.34467674564323L497.8309627684365,157.0184056509082L499.9595871554022,164.00403889510622L500.6613876732944,218.62618807274063L502.47861497752075,243.0756580605074L502.8573257973112,184.0625527576799L504.2841496663847,126.47467201889413L506.115180752636,160.93753738049702L506.49567794421796,214.63194183415098L507.9746313901151,170.28312388716006L509.47599568212337,118.678584626445L510.56430209671424,134.8814750163289L511.7347816137126,249.85907169438076L512.1095136963312,130.4800584241623L512.4738523430722,95.19934504607079L513.6145319306402,155.42222201395495L513.9866656542894,153.12663791544952L515.0957589406355,121.26195138745521L515.863655214812,169.0550703974916L516.2334341756451,167.53302830401958L516.6034567326317,141.90894191491344L519.2008413174214,118.98467065477672L519.5806077205432,237.0166147423697L519.9585065531558,231.61593737633046L520.2821646422819,266.58288892754126L521.0861943458767,253.46825106748005L521.4694522938636,233.1957567223181L521.847838318783,206.76911170036956L522.1570430361419,218.91124850149444L522.5251980226193,190.73603476143603L522.8300992079351,191.66986318452552L523.140115912472,150.47087623849856L523.3906951555839,220.6478101748264L523.6922671934702,207.18243900512482L524.5040107752553,142.50958949432447L525.1298092932925,141.43247697843427L526.3115754320642,123.84194064925529L526.5207433291012,345.6724792949523L526.7605231427464,233.73443447569443L527.0940062767257,159.1552503467111L528.8088419978139,293.58468693756333L529.279469766147,216.9090190655812L530.4523040459615,247.40350422083253L530.6709721929802,319.15168872316957L531.5096737490729,397.86823850646135L531.95512991489,313.8908961165099L532.1659217862829,340.17565764877867L532.6324896187263,191.6478207316398L532.8564356824016,335.48562557674427L533.2882504636293,228.06161191345552L533.4452075851248,251.21219428817787L534.5309968394641,219.81948018871333L534.6612395828055,180.69760740937946L534.7707766531095,464.92777006659924L535.8904257727688,194.9064756201689L536.1038160031311,209.08662641371615L538.5266233446638,184.15513112880723L538.8681451517048,182.61073101365488L539.8569019382804,210.75854571518144L540.2097915658126,134.4633030543927L540.575510590756,142.92348013287983L541.2626953394454,139.95581612315635L541.9642522611841,204.80905190381074L542.6984510674762,178.41013151158512L543.7511112449556,135.17960276688274L544.1057060455614,98.88917106931535L544.8057201916621,78.20247555683073L545.1983971909132,116.6974204247851L545.9302412343891,95.87184043449645L546.6848209188473,196.8173506041606L547.0381977386861,124.64303592936099L547.7654134552479,128.20254312533555L548.1183030827799,67.22774070146949L549.5266948429141,213.6842520631854L549.900127746048,116.52825778160707L550.617437219039,179.03794855774L550.9651301286323,88.46805715474909L551.3298747689621,105.2765517415404L551.7068804156789,125.72257596508516L552.4900420488007,199.14513626946632L552.84082050967,194.94695115218911L553.2176637589513,218.20169465394287L553.6143194953743,203.47870606463698L555.1241284540331,87.60364045818397L555.8858536256572,77.96722389751858L556.2574189582818,164.97835170642736L556.6132317396545,152.4153007230751L557.3463749626152,83.0324778094353L558.0854456919747,72.95062649241459L558.8333670815739,176.4067158703836L559.5734933942648,224.0592613381911L559.9543153807178,116.52398886172887L560.3188976236123,61.750384366683704L561.0751824811442,14.10528705720185L561.433674820204,51.21455796592312L561.783072902871,81.4232015466149L562.162352113686,207.2387205132649L562.517271709163,120.7550110074298L562.8915977981926,154.70044404355147L563.6139415916866,66.62991883979754L563.9719467384397,101.17409104871962L565.0831511914486,204.1717522582424L565.4461094599869,129.11643993060278L566.1859921765246,108.10553689435807L566.5526043873638,88.51845140222582L567.6547957826975,62.92093421928951L568.0184848396962,32.85551541415066L568.3824986915658,148.60019024701978L568.7442389793375,127.89356633992534L569.1058168696735,130.45514970284785L569.8513022977389,83.65914417844311L571.3283881731268,135.36799182397368L572.0953100626896,182.00227359729973L572.4578623376392,145.32101136904427L572.8231753689937,83.33694469972835L573.9044174951365,88.10974699502208L574.2552771547238,156.69084948034308L575.0025489545806,130.72939811727232L576.4654250543546,127.58122528406628L576.8524993420777,136.13838518428457L577.204576982432,102.35104847617993L577.5752491291609,70.68333137379148L578.3110719098087,223.45906669601234L579.7763839711164,189.5846691249091L580.138936246066,144.48574214011973L580.8780069754256,127.6311988067909L581.238610481148,34.30187830285655L581.6000259740484,113.16500731058056L581.996438114318,117.86540566304552L582.7326668885548,181.5931257069726L583.8354266749132,196.24509727468907L584.2224197639187,113.16914471704462L584.5623987953214,145.74606035226446L584.9291734035963,131.7687144518521L585.2958668131532,103.05336293483049L586.2711446125752,116.4821789484032L586.6641464066973,154.53699565807491L588.062550724543,177.12991726737366L588.3563276855213,92.17524729825584L589.0562606329041,216.50731620721714L589.4482068436951,333.82371584392143L589.7699973623121,220.8240117963802L591.1817182698759,111.37434052178872L592.2599560434604,98.82608573012277L592.9408884908797,130.9241738878332L593.973898578653,122.8690996002191L594.3332029048908,113.35449090087934L594.7029006670061,219.59748688450412L595.0726796278393,187.66801588594475L595.4338515245863,124.04076975771659L596.1483190424544,93.9082732536645L596.534824939153,125.49491462571356L596.9069586628023,228.00761891103485L598.020193083756,208.02636191793758L598.3846129292148,155.70886429043077L599.1221408829364,185.55252534979294L599.4776288694377,233.11165954480649L599.8436726892525,171.8683469398758L600.9338466743526,202.53671605921008L601.6768149421663,114.36239008568924L602.0408287940362,140.55937110838946L602.4065478189796,170.74831926952268L602.7623606003523,81.96003607368039L605.3216629864966,145.5073934061155L605.6859204345199,163.2918176611082L606.8069499323817,155.15864495130458L608.6383058135042,308.03106703712217L610.1002075286646,185.16303627555857L610.8036320209127,145.03625275283244L611.5711223014999,217.53621042236134L612.3071074795835,164.58988932096227L612.6630826583917,257.1763694952106L613.0230365743719,175.10153253711587L613.3743834262658,177.08798778163978L614.8488709426844,241.42584830779762L615.2124788009652,119.54469749780606L615.5707275438717,120.29305729952324L616.3005416194027,105.13300124546305L616.6775472661196,112.35267110627376L617.0441594769588,139.39735616784603L618.4886846665113,87.57594809464041L619.2495166522398,161.74505848964742L619.9781939457216,157.70240133422007L620.6963154058905,131.52681909492773L621.0768937961903,85.78578762242034L621.8212424422064,74.1505814174796L623.3000334906679,94.50314029420383L624.0666305853598,431.82353173400213L624.4436362320765,298.14612552764333L625.5367333710174,200.70405274964483L626.676357375254,148.5822017489499L628.126972468641,89.14546214064353L628.8841505120687,91.81436974590775L629.2591261908408,96.61385405946038L630.37325379769,121.64446220368978L631.8711265448333,110.57359388226251L632.2346532043963,183.84358679766305L632.610116075475,170.4713296222794L632.9745359209337,138.6099708569812L634.0813556431817,109.6221304725679L634.4397667835239,84.25600783250326L634.8048362187249,97.11674905153308L635.5389538262991,51.17979957017843L635.9308188383721,175.86785222734977L636.2946702928064,71.14247179345944L637.0144969260489,70.00329182760532L637.3759124189494,83.18644680768483L638.4830569360684,124.83941565805168L638.8404124930792,6.456514120067709L639.5602391263217,47.692353195500175L640.2921643685153,25.745957671111455L640.6495199255261,62.45375594752949L641.0466628542557,70.24822634993711L643.5843663814669,50.784160325429866L643.9502478038461,64.57578168840553L644.3174284057098,123.60321923174439L644.6814422575796,247.03097022776765L646.8584610803505,159.47685756450122L647.2298640155395,114.3969935565242L647.6060576750784,255.45544769334595L647.9663363859297,139.6438101704351L648.3547910518555,143.68758266001677L649.0755108709936,127.12772072576621L650.1070593818467,173.28125244801404L651.2109559502542,108.04592613627699L652.6320959090821,103.52715445704223L653.0115375173327,99.85064247886714L653.3764445550983,156.93771904824757L653.7374540544096,187.7034921861665L654.0964335857763,156.8362651622111L654.8026188344294,105.38004803361997L655.1537220901699,81.47878440133383L656.62520525403,63.065126395934044L657.7067721750441,60.61036839233935L658.0835342256075,201.5883371841764L659.1715970440451,102.16040472803365L659.5329313382277,90.08940340285778L659.8931288503612,138.5194915730033L660.2853998560233,40.308707859973254L660.6563967976233,87.608551953845L661.3709455142092,107.99966129217336L661.7268394942997,48.29166193957144L662.078835935936,136.47770404361765L662.4396018390942,190.0489503004213L662.8278941075844,141.8601504026533L664.2651926112532,84.19047503892347L664.6175950464786,68.1332241248785L664.9665871355564,92.59063185611518L666.0566799219389,74.25237184762221L666.75336492061,66.9991257126681L667.1025194071236,84.85207634672997L667.4813926243497,110.89877932068492L668.1930993858128,159.26006588002875L668.54948055821,84.64621126926352L668.910652454957,47.92788394815665L669.6163505113034,39.7294619213759L670.0008264400573,83.64865486653662L671.0758974636478,154.13991347445767L671.7759116097486,158.213692329993L672.5349572236853,145.93509236967782L672.8992958704265,138.11684014681006L673.6227764459696,91.95433871616189L674.7170915656773,147.07747093942984L675.4400849489136,204.80058059642758L675.7884274482493,171.20409122760088L676.1465949924379,186.03410708158913L676.8672336128583,416.7657529285702L677.6158857909177,191.0301588361026L677.9721045658791,145.7379088304905L678.3215026485461,175.67232089587694L679.7462965496748,89.47521767906528L680.1106351964158,104.29984460373703L680.822341957879,35.2168978690334L681.517484180912,91.77372472691587L683.3410449851262,129.53949125248636L684.79693799517,141.39743909984924L685.1571355073033,148.02651057978318L685.5098627374,77.84344435681709L685.8599104098092,106.64480440332693L690.2003878694793,83.55730537046742L690.9161545668321,145.8717375934237L691.6585544436211,274.0644327639095" fill="none"></path></g></g></g></g><g opacity="0.2"><g><g><g><path style="fill: none;" stroke="rgb(255, 112, 67)" stroke-width="2px" d="M58.46307681157039,90.82833154537713L58.49182115766941,102.01596378044633L58.691813599595655,-20.375358460414873L58.72981459952318,64.76167227421092L58.82928302882065,116.43659397110002L58.86054453517128,102.17447838824307L58.93605934271956,147.18712624597185L59.00816380412049,-19.688597025721094L59.03430979125011,344.8390923924942L59.080105868085845,29.26211579200691L59.14335966924725,100.31269363141354L59.26694411772948,115.66314831464348L59.870250590937765,74.64578117845502L59.9080891934297,335.10785429359606L60.00146771889263,107.10897655009217L60.257243679943244,77.53605073812037L60.28671881450242,67.44949940828974L60.40461935273908,130.58594659936702L60.51228885253372,420.8530088743908L60.55654215373137,75.92822266677524L60.616629204898814,333.78215764387227L60.73225617903726,81.80111735767701L60.80833937761009,87.3884058533572L60.97333517216719,89.74220595031562L61.00857541568972,62.93100511268665L61.04600802459269,16.287452211212837L61.08733817194975,485.04505317798794L61.105851479606756,-144.51373532166713L61.267599325452096,81.30715777513564L61.37705519703821,147.05264866103002L61.47830999812713,201.6378895856436L61.56965855564522,238.36386164013012L61.598078106873054,-57.27497944061338L61.62276251708239,97.03450478665064L61.657921561887115,46.110433902662066L61.84484101024856,231.27473368168856L61.90062452937293,310.491122040761L61.950480542098354,55.60456358049424L62.02859370861604,281.60386738915565L62.11336516999281,182.3882208322866L62.38188932973707,94.05916578123828L62.59893350240002,-14.055873621360433L62.659832540745406,91.34054250447417L62.76985680335606,223.16771503310682L62.81411010455373,74.34923617796517L62.87427835443896,305.55581518866524L62.90562105950739,-21.861240890905037L63.217667731989145,220.11709460887394L63.696334173383875,126.7227019655084L64.03769358298922,211.53230100128175L64.2556309415479,94.91225635795746L64.82678272250983,-354.43757926629394L65.00720627344775,135.40811815677037L65.20183959999962,12.678790840008446L65.29107699085505,66.65296525962924L65.39525494578456,403.87767560770646L65.92467058580044,-20.06375717616089L66.10972246365263,7.598133310671983L66.65554024466287,86.55330780820452L66.85236593659515,125.65954305324416L66.99665605811482,-211.3279130230302L67.21800376282086,223.1548288800875L67.32616045492226,104.99273645051983L67.4300136149806,196.8879445953624L67.9327148768423,21.287151362276745L68.0527265817416,54.47388058530669L68.34211881195888,347.0888736671947L68.40106908107721,50.10929568051688L68.43338617075916,95.9629939162541L68.61202334990563,449.9103222797226L68.68006787541687,17.276416372784297L68.80495150338382,299.8672646099303L69.52185498278568,159.84580660938317L69.66874346327477,113.44971192165224L69.75416451439388,134.0617010858733L69.89569387950857,127.42444755997548L69.99646148829072,125.48976798721478L70.33229938508609,73.62944195549431L71.18309955013002,603.2256165615943L71.22905802440134,93.05533606378941L71.27615328072177,-85.12881590824134L71.73273367087657,284.33462913356794L71.7838888630867,513.3791264368449L72.02902779210633,41.41938055498554L72.57419598337422,63.5807973924621L72.71808011130493,85.62561698368876L73.01023309792718,198.74950646902593L73.039058642744,46.915542792448605L73.26836382179383,144.07014533920022L73.53510160974662,326.72134075594477L74.65556271658393,590.1777006502537L75.53981675335892,19.977424566866944L76.27450275195766,96.28012951473391L76.52524439250506,196.67034170691392L76.64842284739832,106.83083879411583L77.71196365306216,162.61513705855378L78.34588204287871,529.1272876307213L79.20626365662233,49.81716466826265L79.56889713028966,80.56674250232317L80.56829094889632,135.1845914845459L80.93124921743483,96.83836960405773L81.58701006233794,389.19484666234985L81.81136211960235,132.76339231958158L82.20070997142386,74.21531314637468L82.9245153418382,95.50563245076734L83.2824392898735,45.95137646166256L83.92382796172708,112.79184015215412L84.28435026873177,208.11144409104634L84.6443041847119,86.03589831212759L85.73675173391032,77.71636712609109L86.8296864754155,31.550677335171997L88.55442844007463,379.29528078550396L89.24843388105865,11.786447181996209L89.93537503359461,287.367593604858L90.30482919955662,90.61869835790986L91.878216754248,322.51122300083017L92.89774785486756,46.86351094274477L93.26509085416691,110.52740408390486L93.51664448189226,362.79018311666056L93.88512426324074,264.1112031614066L94.60795524904157,115.10637915404271L96.10834515643627,77.08164074661187L96.5372367838234,328.79045944751886L97.21841282739598,293.59628555880823L97.9610563003385,84.56078479483847L99.80572877117916,84.06542760963129L100.33335803940358,481.31694165600953L101.80411041480353,58.9955098703756L103.32293243113746,180.12943848353677L103.99200986575877,152.5864756492336L104.35423734583712,154.49093366710224L105.46430501679683,82.38715202960321L106.17260143211256,201.79824205296646L106.52784582246062,217.72424498055207L106.88674415510944,109.11408239502742L107.24783485313867,435.51863063830274L107.63101160240784,80.60593467891289L107.99543144786665,247.6323522141856L109.46845738736481,36.184685414407795L109.85577527124147,195.8453201846508L110.57706348140424,28.50550627913134L111.4841343578793,197.11073400012555L112.94319411791695,104.85215857836897L113.29486576468211,111.68392269396736L113.65538807168679,52.96212006692474L114.03369289788834,62.83411534622854L114.52242798028949,-104.09248899682655L115.45913638875933,149.59978593042788L115.81494917013197,78.55040254444629L116.2012114706773,99.21121484215917L117.24835013534677,270.6295707064138L117.61626152567068,131.04232797995687L118.37636272293891,120.06539476466315L120.43702378311116,125.20898608559867L121.16066675608994,89.71466420236987L122.19383924129886,192.49597821816187L122.58050753543316,59.472303943111456L123.21978504062412,226.59395720132045L123.57559782199675,58.602700178014345L125.13672437030128,259.62042371132713L125.48961399783333,277.4394217505135L126.2027011374989,214.16580755101597L126.92731849509121,224.49274493660474L127.28434925723077,115.15184130956425L127.59079321818473,273.050910913849L128.6724413379166,172.38234739854212L128.84823656194027,233.45272433872228L129.64016765658369,110.8907046461274L129.77008560505382,660.7841257317071L130.43356032814734,135.2445281236392L130.72814927630344,88.2096705170784L131.47785703769404,149.38913258917987L132.69055988794514,51.37380874748453L133.00179457324896,62.30939568299726L133.39780071992956,153.87212905927646L134.13589706467565,258.3919053240246L134.32728244251572,416.8751752467367L135.42013598530312,87.32736010756128L135.80712907430862,100.37467658840075L136.1687881633624,134.3068649553317L136.53142163702975,166.87824831658259L137.25311584078145,207.96911300488628L137.61639890419113,120.10005755463192L138.00501596755248,82.46799821500116L138.36951701172907,194.5593526345592L141.66529176826353,44.917573616401L142.0170446137465,136.94165050383572L142.77097470846238,80.77128774292976L143.7261964245892,111.4625717621314L146.27916531074558,136.70570568315432L146.63595247673175,11.582890841440928L148.1196154482609,108.20888343703632L148.48452248602644,53.14777363021312L148.85154069045464,125.62299862849378L149.61732579796842,95.36158240949374L150.35038782221127,104.79767010540144L151.8364055565565,136.55668469616063L154.91757210196187,90.62357233693115L155.27379087692347,199.9661580557122L155.5754441135276,310.8017232056762L155.9625184012509,231.80116829314505L156.7052430729112,233.5738798211894L156.99016937364982,103.16006037290032L158.0910615894988,314.3721364231924L159.19966768353822,246.7923160797975L161.635872813507,163.9790690399229L162.0111732871502,262.5684165049465L162.31883522887108,105.19290777177451L162.65174997182584,-6.8962628936182L163.23581234891702,223.53959274058843L163.54185031628202,70.53679408045645L163.79600230297677,62.790581305393914L164.54018855155738,72.75910733395733L164.80952469847955,73.30665984991407L165.13862310169804,163.307001666284L165.86884317081808,74.16371404061556L166.5662589579495,123.22028243823326L166.94107223928586,359.6534498529474L168.36261819170275,219.99155398776742L170.79784893705803,11.315467905672563L171.88875371061837,414.2770960012735L172.24984440864762,62.08230448287287L172.95318770217793,224.25693474737278L173.67033477773322,95.53203944792477L174.77203898076013,295.1592669326866L178.63198242852624,196.43064002769057L179.66369333681487,139.0136253054447L180.01666416306475,101.90188245940817L180.3572927842099,-36.269421679372556L181.06583279567906,98.67213929925202L181.75098757642354,66.82308812356973L182.09088540910858,77.09107777011656L182.78748920906202,23.11722870983192L184.49599143016238,205.45306277826987L184.86804395509378,276.7115143804576L186.90434539992788,115.46629870385306L187.64617688569248,-2.10467190830542L188.01733622472815,98.26679045040487L188.36072560227834,114.13429601320212L188.71816235800685,293.58389946545833L189.07803507526918,71.21079437704816L189.46242980530525,258.0191557176322L189.81182788797219,122.46528850275115L190.16780306678044,48.26221630420184L190.51882512380323,52.03566656953973L190.87098396287513,194.75666464026827L191.604045987118,-21.022833155953208L192.67026635046903,110.15294273479793L193.04053250360897,18.04746350585856L193.41031146444217,43.51905417456459L194.14499746304088,121.62073259827423L195.56654341545777,114.95853779498708L196.1861708309426,81.85631785470912L196.82252518229302,276.71352744117803L198.23960520523127,81.7539354456643L198.5295658264731,37.761405607152085L198.88107507580264,76.93877273740941L199.5902646770141,112.97009940363228L200.29320197695546,113.12818236937858L201.02090488582388,145.90004317815615L201.73155606395568,137.61507380850128L202.08144133892932,152.84025913696786L203.15212763175904,108.86051367651015L203.76387877161787,123.94009108550225L204.11043489916202,23.872549607405517L204.40721621269856,111.68517604865161L204.61402934691947,115.1564524367081L204.99038540389398,16.413890375315702L205.3371039288737,18.758503478604155L205.94276516489796,112.18840436538585L206.28412457450332,230.0498311104571L207.8156135908131,190.21641774904606L208.08275737235485,143.6815893595396L208.6328786854082,96.82619948199135L208.91642460794426,287.4897235625783L209.14353742161367,-16.230504903179167L209.78460129859616,202.48297119387556L210.31572211168566,-50.286260899379954L210.81850457226517,156.51202419183844L211.00526162319105,658.0749819514646L211.3724422250548,259.9223956414344L211.86929717923536,165.70347993271977L211.9660860508456,511.4018905040135L212.12393635823685,99.18544293680941L212.77807322878408,16.45088196880897L213.68481931038798,132.34634255529696L213.84478078444187,140.97157368038626L214.4529591807178,170.41994015821498L214.78067720573375,115.47647379619673L215.31301599959022,8.011618547056742L216.70939034949106,126.19912025857607L218.43072196800279,121.41799206019243L220.98604561697516,201.03508688723883L221.3542818021703,-30.01495741938362L222.0843394738548,119.66022782854833L222.4524132616143,140.6497596390379L222.81878187630014,133.027369331346L223.2069929460725,77.90164404187209L223.56978881717544,26.760426253332355L223.932341092125,100.52814722493673L224.66840746892618,196.56388028550165L225.0327461156672,-7.326660404463155L226.52461015769353,4.632510208195299L226.8986926505698,198.41524222411363L227.63484022608884,61.811586282103576L228.40907000025314,215.13994943110453L229.50557748534132,111.42840181943296L230.2635675159469,99.39496593484631L230.6342396626758,306.26751549661526L231.00669818119616,107.56647625322796L232.12975764700286,81.49956214396099L232.50172897321653,77.00987096476462L232.91145770320423,10.331818480843879L233.18444779242716,215.0962134430957L233.5502480160884,61.6810899414528L234.29703262363842,122.85368260412136L234.67176470625705,153.65036862344843L235.0745103465145,145.9288799524252L235.81260669126064,265.6408856901196L236.17280420339412,66.24970880789238L236.5529766001049,177.3244948104745L236.92316155452704,146.36135783971534L237.2917225345934,127.8052654368031L237.6899210466544,167.94354850999528L238.428585782425,130.39911661365124L238.79998871761407,175.2710959433797L239.92515935008342,120.45101609927667L241.3671673793844,143.6883497816087L242.4709827490739,185.92584167532831L242.82939388941594,311.2860502285601L243.18374509386837,-66.83441498796356L243.91843109246702,211.2708339043964L244.29519314303047,197.28805003007983L244.67471594999896,164.4403804959714L245.03361428264776,320.46410693470995L245.75563328127066,9.979346935148044L246.1111212677721,180.35894663872992L246.466852850427,187.4824761380181L247.9117028348507,87.44693847876334L249.320500588574,110.01253655781409L249.66039842125898,28.03265498455812L250.34587799687466,86.25828382254241L250.68658781673767,65.88036986488623L251.02754123275403,-17.180605453007786L251.3947218346178,137.94276034545447L251.740465974984,61.34203025253129L252.0863725127858,141.3246959447545L253.10298045956475,116.4484711896261L253.46780629861254,270.39022163336756L255.51312080112174,143.2277243048503L256.234977402309,42.740147129250715L256.58242671574897,144.15832893859354L256.92719647150165,-37.97724084877939L257.28138527851837,312.85183962981284L257.9937416297238,82.72944447606699L259.033897204663,44.00817023043635L259.37769257580214,42.72270274001414L260.4214208943243,120.5339634969394L260.77163096416916,144.87994068563208L261.1199734635048,155.39019161169728L261.79351682760466,214.46015036565404L262.49905248651544,215.10147048064587L263.53539172171827,52.21441225726676L263.883328227465,4.403527756757171L264.5939794055967,127.25020401202843L265.6275578843946,365.4332677323703L265.9765499734726,135.30686248473708L266.32537966511495,279.13153391748386L267.03659923427125,152.51480684097345L267.3827493682264,150.3010458900237L267.7250019637275,3.6943405691969815L268.4108875329321,166.0653885019203L268.7645079489243,160.07625718472255L269.1483342879358,244.00072656431692L270.8682043295274,109.09491304034464L272.2792756473488,190.25617249276385L272.62404540310155,213.030428482651L273.3168328633186,229.60606020896626L274.0311379837511,326.4393840346566L274.70427535426205,63.21870290364086L275.0408440395176,75.9898005273476L275.38301543630087,69.76963843737354L275.7572603266127,54.919965865523864L276.10032490929177,30.316542893120697L276.437786780443,-8.12272975407194L277.11904402273336,209.58864599855735L277.8180025855027,7.21792768638835L278.51468758417394,119.90964380795202L279.52739799249883,198.73416489480942L280.2307412860292,41.642727718610786L280.5790837853648,59.049606068971116L280.9223107654793,100.54746443380054L282.30341975643495,92.00907500118717L282.9853265884677,49.05484934633881L283.33699823523284,93.00549357789458L284.0181742788054,33.440678499777675L285.06945407808234,123.22392550114529L285.72813807682604,72.69972845372604L286.067305121051,159.86875806600466L286.4118312806502,84.29198669497924L287.4678206055592,204.72373216146258L288.49628356513614,68.19446009527661L288.8248947760478,51.37012561568872L289.4528856594654,267.1325893280434L290.14640390814264,228.1370002986366L290.8179173042978,-34.426406890626765L292.56174096763846,74.63213531939954L293.2326047740512,189.69592615442983L293.60181534385987,113.40321759168489L293.954298977803,46.43583170497459L294.30353466303427,24.77197103304627L295.33857471875245,79.48890235104687L297.42359539426286,52.042443019162306L298.14366562365876,154.44360109608652L298.4851062319819,146.9620288735037L298.8278460197897,71.86163806433365L299.16944902554843,114.91967338186663L299.50601771080386,185.0228428997449L300.9033664453182,193.5999304596111L301.5910383863144,-15.58586387910077L301.9345089625823,121.48367297446248L302.9971565823504,102.0180645920222L303.33502444709063,120.84550067097933L303.6780890297696,277.27428666122427L304.01896124706815,95.35964547965244L304.3587778810354,20.089668729584332L305.07941650145585,30.565848282405227L305.42045111619,563.3949150622366L305.75401544888706,82.57787831357638L306.09675523669495,6.781856421602072L306.80578244047086,114.19609184850214L307.8268563167284,42.33534241584516L308.5153402449025,139.68655816697296L308.8768369365207,75.42310470148249L309.5669448390506,227.36403627016293L309.9136633640303,306.64808654911883L310.95820366973044,191.66775118519743L311.3283074254348,133.7925567908583L312.0010388023568,66.83549665549458L312.34751373118314,24.072926081345088L314.78355646371637,109.53443223257904L315.1294630015181,46.101355896355926L315.4661940842093,35.164005929957455L315.8338618783798,276.04149853366755L316.17773844823677,83.21580379273553L316.52559375526556,-11.419392357695301L316.86703436358874,1.0555513378269552L317.5627449776464,5.983959930893548L317.93431031027103,73.722225462744L318.28143482883974,174.96241808488534L319.3224023909569,138.43693469721288L319.6909633710231,91.59932819165783L319.9897746525045,17.151606608117675L320.357442446675,158.76582517695843L320.92469668918284,4.266075457884597L322.59251835266855,134.9093246640914L322.83514012143655,1.0687580419164533L323.087830531211,281.0135148943148L323.53531666497287,189.6517349839014L324.75849414981934,111.16018551976606L325.5737292764696,61.588800082851094L326.5526610181922,190.19551140825206L327.93490679119685,156.82977364561756L328.96450653282284,-2.4336534715819766L329.36075627565685,105.39369615383919L329.70641921730527,91.91953066250113L330.4103309018602,-6.19991057090607L330.75177151018335,84.16024501342099L331.0974344518317,197.4505950667224L331.87085223881814,136.77975939137622L332.2131048343192,197.2670731680504L332.92132005091713,222.11628187898802L333.63749274185886,30.248348858460815L333.98234369632934,36.15286110416514L334.63859173353916,93.53649443934512L335.33275957195883,-14.610773167844627L335.6795592956563,168.13421228650986L336.3984927430031,100.15119158781539L336.9910809854626,108.7021358037793L337.3481117476021,128.71633889384313L337.7204078686869,66.86707093590258L338.0634724513659,331.32968551650583L339.03144236618635,130.46696445315544L339.3845755898718,143.522586412222L339.72707178152626,154.67734373091614L340.80311718973036,82.43046328744407L341.14788694548304,161.4023833728803L344.00064149773425,75.28172885751144L345.0762809123494,174.86415635984704L345.4603508475143,51.39097746280078L346.1537878974737,100.53249650192515L346.86825541534176,-8.436895446886979L347.21440554929694,123.71527579797583L348.29483568826186,37.26721843335082L348.64821250810076,222.59649302613147L349.35391056444706,17.180962675120384L349.7296170316792,72.17980423450393L350.09176331303973,183.8491387454349L350.3352782677035,156.1270359455884L351.38607087467363,100.06300878979971L354.2154401962003,108.29947878254359L354.58189000960397,101.56029502495431L354.9451730730136,232.92113526605806L355.64949075115743,46.4208363259138L356.3527528459699,230.34805900406516L356.72983969140455,-15.099510973453619L357.09596470993705,80.02098667511444L357.80271834961474,122.11616671573825L358.50825400852545,118.76938915781034L358.85529732837637,131.24946487596551L359.2340893468846,130.72138583751922L360.28748031282424,187.66671607108717L360.64004514548515,161.83766608203408L360.99155439481467,72.70877119941446L362.79181116702205,47.396651482588425L363.5129369797492,95.00702888459739L363.8849083059628,315.51272124093634L364.585166048217,49.464462325796376L364.9404104385651,7.582625049898979L365.6319799180153,46.10353564363288L367.770835343423,139.30641985841402L368.15628565679043,67.3126625674717L368.88009102720474,15.240090055684732L369.599998859165,141.9478504306019L371.0780591191665,72.72083353618353L371.79325742549463,245.15214600823134L372.50285302029505,1.7209384271643557L373.2340474740287,21.841538027048728L373.9433994726757,32.44281584049935L374.6647688815563,119.45149619096577L375.0187952911375,98.94234982726402L375.3941769634984,183.5238499304863L375.7592463986996,-59.355394351898894L376.11692675058146,70.19205422657217L377.571682978576,293.5352782791407L378.3032022271808,171.1158180653433L378.65787822650435,42.47651951815271L380.8439101069503,255.37763539114468L381.5736429837636,3.428052384216869L382.3237567387432,31.776082436667423L382.6867962059994,24.714105153866058L383.0649386347654,132.79594107524275L385.21751664348034,-54.31495957084263L386.2843053978559,95.24868271983786L387.01420067210483,71.87995435248104L388.11712285589863,190.62698597069263L389.1855355846301,131.1273092741596L389.580648545415,88.33237746672495L390.2926801017492,80.12275843437072L390.64410815236096,51.303434965547694L391.00146370937176,252.47166043179823L391.35289175998344,36.07349265920038L392.08830854704235,74.76902985941013L392.44874965532927,39.654208388110646L393.16362316678624,205.7322307052479L393.51976074303013,51.76463422872166L393.8745991397892,150.66104718035692L394.9903507209945,28.29514784486787L395.36548879720203,114.4069230955941L396.02863872542434,258.3179221370381L398.9114368032594,212.03931021788824L399.27504466154016,130.7792901828279L399.62842148137906,100.28375307873546L399.9807427178865,43.16540300093072L401.0612540555693,51.21159067293354L401.42047718308925,69.5967524232085L401.7759651695908,53.826649508581625L402.8648399752063,81.822850720232L403.2155372373579,181.33478743949019L403.596359223811,206.86152571430176L404.6701310679169,125.7092108388058L408.9851121301997,142.23967691933944L410.05482403841586,103.30752302465748L410.6878492423367,154.0670401374703L411.0404140749976,60.1921750978392L411.6404725994941,281.6296396951943L412.00724720776896,10.774537974824682L413.1178020710354,148.12101011716248L414.2095188317736,205.08224288931967L414.5706095298029,3.0839728655371346L414.93015745219407,39.90639873702639L415.31203502197855,14.98796381698304L415.67198893795864,231.12275400831754L416.02033143729426,225.3533604496953L416.37435784687545,56.42401392515848L416.7328501859353,86.58674288757464L417.46859176786535,174.5053379029626L418.18159770881306,156.80906284097634L418.42771102244626,1095.109541169604L419.13487065571286,40.4159018409585L419.8683386735447,242.91607149728966L420.42089594813183,595.7476986212109L420.8017991333028,197.91270148942476L421.1550135557061,53.193791941841255L421.50733479221356,14.428108550954562L421.87516498381973,198.27452030432565L422.266948797175,126.23779955345356L423.69978137136525,64.31651659209712L425.51782066276945,180.7246761766864L425.8779369761852,128.0545996756839L426.58395982740274,205.16115615176477L426.9649442112914,187.86254713085225L428.4038666893162,222.9383415093631L428.76284622068283,124.43302971288529L429.1476469443079,145.14184693748345L429.8535885968076,177.8035327407013L430.80012205013037,188.31185074381358L431.90093306726163,163.3265809256477L432.6188109312771,209.71196840625856L433.33360324401633,67.7990218841403L433.69152719205164,147.68885919196396L434.4224780496318,90.55029195816593L434.7785344271578,48.0441966993622L435.70687936769485,122.48097146385737L436.0850217964608,237.96808364485946L436.4487920521772,240.79236936949349L437.1736530059229,179.58320663798895L437.5392908321486,153.72748679990082L437.89412922890773,198.45967060243393L438.5197653495094,127.57366408312197L438.87281737447694,150.91258039957884L439.1938771046339,187.38315659444834L439.5062485719868,120.88869011941358L439.8689632443719,115.68681379877364L440.1936769168295,202.82614034751614L442.02787475307474,-9.365378032545891L442.38320034214064,64.27195678783806L443.15653693040923,140.27145808811085L444.5819804212802,105.75327131159361L444.93389566419876,151.64804315835775L445.68685137430106,109.35859153892505L447.0096596858807,323.6013530801353L447.73021710758326,169.30067839765627L448.4795188753849,178.68890761844887L449.191225636848,282.56867482208196L449.55710705922706,132.18059841897443L449.9043127765136,208.62085102965742L450.2843227757888,175.9201477501831L450.99968347955263,183.76067306109988L452.0552668108725,129.45498793025916L452.40336571405487,119.56477413088442L453.1411372639297,157.31060025081567L453.5007663850387,31.796136111614885L453.8623442753747,142.0697111254233L454.59703027397336,67.29992707345542L456.0518677006858,52.65584954696703L456.75472380190934,339.3049704973061L457.1067202435457,96.93149249475294L457.85537242160495,216.05968738357026L458.2271001516652,218.76209959134007L459.28300827785637,177.56024088949243L459.6641550591807,255.81762379000799L461.43258193401283,84.70223436555563L461.7991129461343,34.49198984448981L462.1912215543608,330.2009354442712L462.5571029767399,9.83306665980399L463.2675105587183,95.9005265264621L463.8560388652881,62.485326932328576L464.20714212102865,215.97645950372117L464.51350488326483,74.33034289789157L464.8692364659197,-1.8788565014401684L465.2207457152492,179.38097737886397L465.5374207146453,140.7211655954205L466.4386452834392,121.62692885045982L467.4588259738011,276.8516208421909L467.99051517791526,264.1900715467019L468.56816285630066,357.1743335206316L468.7853694263992,403.15122995053036L469.1160106052558,191.85418368758624L469.3700813932327,206.95987078261825L469.61156637995157,197.85054663692617L470.61713130111065,336.8030309287969L471.68205248497696,407.4555897202638L472.11240568928434,-52.5263102435913L472.30598343250483,156.26739884817786L472.8990588672711,250.47226800899927L473.1819552000649,105.39090816090669L473.41588870602885,43.44694941684912L474.00051947414465,138.24018365587654L474.82687882513267,274.3598106874979L475.05504722213334,148.8506356409543L475.2472445871514,105.46224479812042L475.7756858425537,148.69737055779206L476.0049910216036,81.50508844441003L476.3150077261405,114.91976313616624L477.19625741035713,288.60372828558684L477.7121940632192,95.32362675865704L477.9518114794289,185.40477308878582L478.166825684147,408.12200257302555L478.4051439208719,247.5876545729664L478.6948609459604,196.40415609827625L478.9235165352679,264.0867387037341L479.6043677839693,130.15708452814803L479.9118673282545,318.43335179520926L480.9496681403777,88.41396412509494L482.60011327825544,114.63962634357875L486.9081112508081,168.49839676830834L487.1718446862025,142.8240735752972L487.5591625700791,174.66709438397265L487.9315398898818,148.67886193900264L489.43022462420276,75.32203815458058L490.5571816284636,204.70815979047555L490.94937143540784,130.51531637657416L491.6508471584289,217.2825640720385L492.0250920487408,311.41764285387075L492.3962513877765,314.4674170232785L492.76473116912496,122.68563851387069L493.5517091419829,316.35959152413966L494.26268511498586,153.9152944663805L494.6327888706902,121.35578912503331L494.9380148508773,120.84893056742982L495.6567859007884,192.00061141642257L496.07008737435905,308.59440853674676L496.4547257005485,286.49548954141386L497.1937964299081,125.2859616168248L497.8309627684365,138.80089158775155L499.9595871554022,168.66112772457154L500.6613876732944,255.0409541911636L502.47861497752075,259.3753047190186L502.8573257973112,144.72048255579483L504.2841496663847,88.08275152637032L506.115180752636,183.91278095489892L506.49567794421796,250.4282114699203L507.9746313901151,140.7172452558328L509.47599568212337,84.27555845263493L510.56430209671424,145.6834019429181L511.7347816137126,326.510802813082L512.1095136963312,50.89404957734996L512.4738523430722,71.67886946067642L513.6145319306402,195.57080665921112L513.9866656542894,151.5962485164458L515.0957589406355,100.01882703545897L515.863655214812,200.91714973751584L516.2334341756451,166.51833357503833L516.6034567326317,124.82621765550931L519.2008413174214,103.70182314801883L519.5806077205432,315.7045774674318L519.9585065531558,228.01548579897093L520.2821646422819,289.8941899616817L521.0861943458767,244.72515916077262L521.4694522938636,219.68076049221017L521.847838318783,189.15134835240386L522.1570430361419,227.00600636891102L522.5251980226193,171.95255893473046L522.8300992079351,192.2924154665852L523.140115912472,123.00488494114728L523.3906951555839,267.43243279904493L523.6922671934702,198.20552489199042L524.5040107752553,99.39435648712424L525.1298092932925,140.71440196784073L526.3115754320642,112.11491642980275L526.5207433291012,493.55950505875035L526.7605231427464,159.10907126285582L527.0940062767257,109.43579426072222L528.8088419978139,383.2043113314649L529.279469766147,165.79190715092642L530.4523040459615,267.7331609910001L530.6709721929802,366.98381172472756L531.5096737490729,450.3459383619893L531.95512991489,257.9060011898756L532.1659217862829,357.6988320036245L532.6324896187263,92.62926278688059L532.8564356824016,431.37749547348056L533.2882504636293,156.44560280459638L533.4452075851248,266.6459158713261L534.5309968394641,198.89100412240364L534.6612395828055,154.61635888982352L534.7707766531095,654.4145451714124L535.8904257727688,14.892279322548632L536.1038160031311,218.540060276081L538.5266233446638,167.53413427220124L538.8681451517048,181.5811309368867L539.8569019382804,229.52375551619915L540.2097915658126,83.59980794720025L540.575510590756,148.56359818520454L541.2626953394454,137.97737345000735L541.9642522611841,248.04454242424703L542.6984510674762,160.8108512501014L543.7511112449556,106.35925027041446L544.1057060455614,74.69554993760374L544.8057201916621,64.41134521517432L545.1983971909132,142.3607170034213L545.9302412343891,81.9881204409707L546.6848209188473,264.1143573839367L547.0381977386861,76.52682614616123L547.7654134552479,130.57554792265194L548.1183030827799,26.577872418892127L549.5266948429141,311.3219263043293L549.900127746048,51.75759492722153L550.617437219039,220.71107574182867L550.9651301286323,28.088129552755163L551.3298747689621,116.48221479940122L551.7068804156789,139.35325878078174L552.4900420488007,248.0935098057204L552.84082050967,192.14816107400435L553.2176637589513,233.70485698844539L553.6143194953743,193.66338033843303L555.1241284540331,10.353596720548637L555.8858536256572,71.54294619040837L556.2574189582818,222.98577024569985L556.6132317396545,144.03993340084025L557.3463749626152,36.777262533675355L558.0854456919747,66.22939228106742L558.8333670815739,245.37744212236294L559.5734933942648,255.8276249833961L559.9543153807178,44.83380721075412L560.3188976236123,25.23464803665354L561.0751824811442,-17.65811114911935L561.433674820204,75.95407190507069L561.783072902871,101.56229726707608L562.162352113686,291.11573315769823L562.517271709163,63.09920467020635L562.8915977981926,177.3307327342993L563.6139415916866,7.916235370628215L563.9719467384397,124.203539188001L565.0831511914486,272.8368597312576L565.4461094599869,79.07956504550964L566.1859921765246,94.09826820352828L566.5526043873638,75.46039440747097L567.6547957826975,45.85592276399865L568.0184848396962,12.811902877391503L568.3824986915658,225.76330680226582L568.7442389793375,114.08915040186236L569.1058168696735,132.1628719447961L569.8513022977389,52.46180716217327L571.3283881731268,169.84055692099412L572.0953100626896,213.09179477951707L572.4578623376392,120.86683655020732L572.8231753689937,42.01423358685105L573.9044174951365,91.29161519188455L574.2552771547238,202.41158447055716L575.0025489545806,113.42176387522505L576.4654250543546,125.48244339526224L576.8524993420777,141.84315845109677L577.204576982432,79.82615733744353L577.5752491291609,49.5715199721991L578.3110719098087,325.3095569108263L579.7763839711164,167.00173741084026L580.138936246066,114.41979081692682L580.8780069754256,116.39483658457164L581.238610481148,-27.91766869976641L581.6000259740484,165.7404266490632L581.996438114318,120.99900456468885L582.7326668885548,224.07827240292397L583.8354266749132,206.0130783198334L584.2224197639187,57.785176345281684L584.5623987953214,167.4640041090777L584.9291734035963,122.45048385157713L585.2958668131532,83.9097952568161L586.2711446125752,125.43472295745167L586.6641464066973,179.90687346452268L588.062550724543,192.19186500690617L588.3563276855213,35.538800652177315L589.0562606329041,299.3953621465247L589.4482068436951,412.0346489350576L589.7699973623121,145.49087576468608L591.1817182698759,38.407893005394385L592.2599560434604,90.46058253567878L592.9408884908797,152.32289932630678L593.973898578653,117.49905007514297L594.3332029048908,107.01141843465285L594.7029006670061,290.4261508735873L595.0726796278393,166.38170188690523L595.4338515245863,81.6226056722312L596.1483190424544,73.8199422509631L596.534824939153,146.55267554041293L596.9069586628023,296.3494217679157L598.020193083756,194.7055239225394L598.3846129292148,120.83053253875954L599.1221408829364,205.44829938936772L599.4776288694377,264.8177490081489L599.8436726892525,131.03947186992198L600.9338466743526,222.9822954720996L601.6768149421663,55.579506103342L602.0408287940362,158.024025123523L602.4065478189796,190.87428471027812L602.7623606003523,22.767847276452187L605.3216629864966,187.87229829440565L605.6859204345199,175.14810049777003L606.8069499323817,149.73652981143547L608.6383058135042,409.94601509433386L610.1002075286646,103.25101576784942L610.8036320209127,118.28506373768175L611.5711223014999,265.86951553538063L612.3071074795835,129.29234192002951L612.6630826583917,318.9006896113762L613.0230365743719,120.38497456505269L613.3743834262658,178.41229127798908L614.8488709426844,284.31775532523625L615.2124788009652,38.290596957811715L615.5707275438717,120.79196383400125L616.3005416194027,95.02629720942303L616.6775472661196,117.16578434681412L617.0441594769588,157.42714620889427L618.4886846665113,53.02834271250333L619.2495166522398,211.1911320863188L619.9781939457216,155.0072965639352L620.6963154058905,114.07643093539951L621.0768937961903,55.291766640748676L621.8212424422064,66.39377728085259L623.3000334906679,108.07151287868658L624.0666305853598,656.7037926938676L624.4436362320765,209.0278547234041L625.5367333710174,135.7426708976458L626.676357375254,113.83430108181989L628.126972468641,49.52096906843923L628.8841505120687,93.59364148275057L629.2591261908408,99.81351026849546L630.37325379769,138.33153429984276L631.8711265448333,103.19301500131104L632.2346532043963,232.69024874126333L632.610116075475,161.556491505357L632.9745359209337,117.36906501344913L634.0813556431817,90.29690354962565L634.4397667835239,67.34525940579346L634.8048362187249,105.69057653088623L635.5389538262991,20.555166582608763L635.9308188383721,258.9932206654639L636.2946702928064,1.325551504199268L637.0144969260489,69.2438385170359L637.3759124189494,91.9752167944045L638.4830569360684,152.60806155829627L638.8404124930792,-72.46542023858837L639.5602391263217,75.18291257912182L640.2921643685153,11.115027321518994L640.6495199255261,86.92562146514149L641.0466628542557,75.44453995154225L643.5843663814669,37.808116309091645L643.9502478038461,73.77019593038926L644.3174284057098,162.95484426063692L644.6814422575796,329.31613755844984L646.8584610803505,101.1074491223236L647.2298640155395,84.34375088453953L647.6060576750784,349.4944171178938L647.9663363859297,62.436051821827846L648.3547910518555,146.38343098640462L649.0755108709936,116.08781276959911L650.1070593818467,204.0502735961793L651.2109559502542,64.55570859511897L652.6320959090821,100.51464000421902L653.0115375173327,97.39963449341712L653.3764445550983,194.99577009450118L653.7374540544096,208.2140076114458L654.0964335857763,136.2581138129075L654.8026188344294,71.07590328122592L655.1537220901699,65.54460864647643L656.62520525403,50.78935439233413L657.7067721750441,58.973863056609616L658.0835342256075,295.5736497120677L659.1715970440451,35.87511642393844L659.5329313382277,82.04206918607389L659.8931288503612,170.80621701976693L660.2853998560233,-25.165147948713525L660.6563967976233,119.14178134975953L661.3709455142092,121.5937341843923L661.7268394942997,8.486329037836697L662.078835935936,195.26839877964852L662.4396018390942,225.76311447162374L662.8278941075844,109.73428380414128L664.2651926112532,45.74402479643692L664.6175950464786,57.428390182181886L664.9665871355564,108.89557034360632L666.0566799219389,62.02686517529355L666.75336492061,62.16362828936542L667.1025194071236,96.75404343610461L667.4813926243497,128.2632479699882L668.1930993858128,191.5009235862579L668.54948055821,34.90364152875338L668.910652454957,23.44899906741864L669.6163505113034,34.26384723685538L670.0008264400573,112.92811682997706L671.0758974636478,201.13408587973842L671.7759116097486,160.9295449003499L672.5349572236853,137.749359062801L672.8992958704265,132.90467199823158L673.6227764459696,61.17933776239647L674.7170915656773,183.82622575494185L675.4400849489136,243.2826537010927L675.7884274482493,148.8064316483831L676.1465949924379,195.9207843175813L676.8672336128583,570.5868501598909L677.6158857909177,40.53976277445753L677.9721045658791,115.54307549341576L678.3215026485461,195.62859560613452L679.7462965496748,32.010482201190825L680.1106351964158,114.18292922018486L680.822341957879,-10.838399954102385L681.517484180912,129.47827596550428L683.3410449851262,154.71666893619994L684.79693799517,149.3027376647579L685.1571355073033,152.44589156640578L685.5098627374,31.054733541506437L685.8599104098092,125.84571110100012L690.2003878694793,68.16563934856106L690.9161545668321,187.41469240872794L691.6585544436211,359.5262295442334" fill="none"></path></g></g></g></g></g><g><g opacity="0.703418"><span fill="rgb(0, 0, 0)" stroke="none" stroke-width="1px">Alt + Scroll to Zoom</span></g></g></g><g transform="translate(59, 378)" clip-path="url(#clip_1)"><clipPath id="clip_1"><rect width="760" height="21"></rect></clipPath><g><g><line x1="0" y1="0" x2="0" y2="5" style="visibility: inherit;" fill="rgb(0, 0, 0)" stroke="rgb(204, 204, 204)" stroke-width="1px"></line><line x1="58.46307681157039" y1="0" x2="58.46307681157039" y2="5" style="visibility: inherit;" fill="rgb(0, 0, 0)" stroke="rgb(204, 204, 204)" stroke-width="1px"></line><line x1="116.92615362314078" y1="0" x2="116.92615362314078" y2="5" style="visibility: inherit;" fill="rgb(0, 0, 0)" stroke="rgb(204, 204, 204)" stroke-width="1px"></line><line x1="175.38923043471118" y1="0" x2="175.38923043471118" y2="5" style="visibility: inherit;" fill="rgb(0, 0, 0)" stroke="rgb(204, 204, 204)" stroke-width="1px"></line><line x1="233.85230724628155" y1="0" x2="233.85230724628155" y2="5" style="visibility: inherit;" fill="rgb(0, 0, 0)" stroke="rgb(204, 204, 204)" stroke-width="1px"></line><line x1="292.31538405785193" y1="0" x2="292.31538405785193" y2="5" style="visibility: inherit;" fill="rgb(0, 0, 0)" stroke="rgb(204, 204, 204)" stroke-width="1px"></line><line x1="350.7784608694223" y1="0" x2="350.7784608694223" y2="5" style="visibility: inherit;" fill="rgb(0, 0, 0)" stroke="rgb(204, 204, 204)" stroke-width="1px"></line><line x1="409.2415376809927" y1="0" x2="409.2415376809927" y2="5" style="visibility: inherit;" fill="rgb(0, 0, 0)" stroke="rgb(204, 204, 204)" stroke-width="1px"></line><line x1="467.70461449256305" y1="0" x2="467.70461449256305" y2="5" style="visibility: inherit;" fill="rgb(0, 0, 0)" stroke="rgb(204, 204, 204)" stroke-width="1px"></line><line x1="526.1676913041334" y1="0" x2="526.1676913041334" y2="5" style="visibility: inherit;" fill="rgb(0, 0, 0)" stroke="rgb(204, 204, 204)" stroke-width="1px"></line><line x1="584.6307681157039" y1="0" x2="584.6307681157039" y2="5" style="visibility: inherit;" fill="rgb(0, 0, 0)" stroke="rgb(204, 204, 204)" stroke-width="1px"></line><line x1="643.0938449272743" y1="0" x2="643.0938449272743" y2="5" style="visibility: inherit;" fill="rgb(0, 0, 0)" stroke="rgb(204, 204, 204)" stroke-width="1px"></line><line x1="701.5569217388447" y1="0" x2="701.5569217388447" y2="5" style="visibility: inherit;" fill="rgb(0, 0, 0)" stroke="rgb(204, 204, 204)" stroke-width="1px"></line><line x1="760.019998550415" y1="0" x2="760.019998550415" y2="5" style="visibility: inherit;" fill="rgb(0, 0, 0)" stroke="rgb(204, 204, 204)" stroke-width="1px"></line></g><g transform="translate(0, 8)"><text style="text-anchor: middle; visibility: hidden; font-family: &quot;Helvetica Neue&quot;, sans-serif; font-size: 12px; font-weight: 200;" x="0" y="0" dx="0em" dy="0.95em" fill="rgb(50, 49, 63)" stroke="none" stroke-width="1px">-0.2</text><text style="text-anchor: middle; visibility: inherit; font-family: &quot;Helvetica Neue&quot;, sans-serif; font-size: 12px; font-weight: 200;" x="58.46307681157039" y="0" dx="0em" dy="0.95em" fill="rgb(50, 49, 63)" stroke="none" stroke-width="1px">0</text><text style="text-anchor: middle; visibility: inherit; font-family: &quot;Helvetica Neue&quot;, sans-serif; font-size: 12px; font-weight: 200;" x="116.92615362314078" y="0" dx="0em" dy="0.95em" fill="rgb(50, 49, 63)" stroke="none" stroke-width="1px">0.2</text><text style="text-anchor: middle; visibility: inherit; font-family: &quot;Helvetica Neue&quot;, sans-serif; font-size: 12px; font-weight: 200;" x="175.38923043471118" y="0" dx="0em" dy="0.95em" fill="rgb(50, 49, 63)" stroke="none" stroke-width="1px">0.4</text><text style="text-anchor: middle; visibility: inherit; font-family: &quot;Helvetica Neue&quot;, sans-serif; font-size: 12px; font-weight: 200;" x="233.85230724628155" y="0" dx="0em" dy="0.95em" fill="rgb(50, 49, 63)" stroke="none" stroke-width="1px">0.6</text><text style="text-anchor: middle; visibility: inherit; font-family: &quot;Helvetica Neue&quot;, sans-serif; font-size: 12px; font-weight: 200;" x="292.31538405785193" y="0" dx="0em" dy="0.95em" fill="rgb(50, 49, 63)" stroke="none" stroke-width="1px">0.8</text><text style="text-anchor: middle; visibility: inherit; font-family: &quot;Helvetica Neue&quot;, sans-serif; font-size: 12px; font-weight: 200;" x="350.7784608694223" y="0" dx="0em" dy="0.95em" fill="rgb(50, 49, 63)" stroke="none" stroke-width="1px">1</text><text style="text-anchor: middle; visibility: inherit; font-family: &quot;Helvetica Neue&quot;, sans-serif; font-size: 12px; font-weight: 200;" x="409.2415376809927" y="0" dx="0em" dy="0.95em" fill="rgb(50, 49, 63)" stroke="none" stroke-width="1px">1.2</text><text style="text-anchor: middle; visibility: inherit; font-family: &quot;Helvetica Neue&quot;, sans-serif; font-size: 12px; font-weight: 200;" x="467.70461449256305" y="0" dx="0em" dy="0.95em" fill="rgb(50, 49, 63)" stroke="none" stroke-width="1px">1.4</text><text style="text-anchor: middle; visibility: inherit; font-family: &quot;Helvetica Neue&quot;, sans-serif; font-size: 12px; font-weight: 200;" x="526.1676913041334" y="0" dx="0em" dy="0.95em" fill="rgb(50, 49, 63)" stroke="none" stroke-width="1px">1.6</text><text style="text-anchor: middle; visibility: inherit; font-family: &quot;Helvetica Neue&quot;, sans-serif; font-size: 12px; font-weight: 200;" x="584.6307681157039" y="0" dx="0em" dy="0.95em" fill="rgb(50, 49, 63)" stroke="none" stroke-width="1px">1.8</text><text style="text-anchor: middle; visibility: inherit; font-family: &quot;Helvetica Neue&quot;, sans-serif; font-size: 12px; font-weight: 200;" x="643.0938449272743" y="0" dx="0em" dy="0.95em" fill="rgb(50, 49, 63)" stroke="none" stroke-width="1px">2</text><text style="text-anchor: middle; visibility: inherit; font-family: &quot;Helvetica Neue&quot;, sans-serif; font-size: 12px; font-weight: 200;" x="701.5569217388447" y="0" dx="0em" dy="0.95em" fill="rgb(50, 49, 63)" stroke="none" stroke-width="1px">2.2</text><text style="text-anchor: middle; visibility: hidden; font-family: &quot;Helvetica Neue&quot;, sans-serif; font-size: 12px; font-weight: 200;" x="760.019998550415" y="0" dx="0em" dy="0.95em" fill="rgb(50, 49, 63)" stroke="none" stroke-width="1px">2.4</text></g><line x1="0" y1="0" x2="760.019998550415" y2="0" fill="rgb(0, 0, 0)" stroke="rgb(204, 204, 204)" stroke-width="1px"></line></g></g></g></g></svg>