<svg viewBox="0 0 820 400" xmlns="http://www.w3.org/2000/svg"><g><g><g><g><g><line x1="39.98800086975098" y1="378.60799980163574" x2="34.98800086975098" y2="378.60799980163574" style="visibility: inherit;" fill="rgb(0, 0, 0)" stroke="rgb(204, 204, 204)" stroke-width="1px"></line><line x1="39.98800086975098" y1="349.4843075092022" x2="34.98800086975098" y2="349.4843075092022" style="visibility: inherit;" fill="rgb(0, 0, 0)" stroke="rgb(204, 204, 204)" stroke-width="1px"></line><line x1="39.98800086975098" y1="320.3606152167687" x2="34.98800086975098" y2="320.3606152167687" style="visibility: inherit;" fill="rgb(0, 0, 0)" stroke="rgb(204, 204, 204)" stroke-width="1px"></line><line x1="39.98800086975098" y1="291.2369229243352" x2="34.98800086975098" y2="291.2369229243352" style="visibility: inherit;" fill="rgb(0, 0, 0)" stroke="rgb(204, 204, 204)" stroke-width="1px"></line><line x1="39.98800086975098" y1="262.1132306319017" x2="34.98800086975098" y2="262.1132306319017" style="visibility: inherit;" fill="rgb(0, 0, 0)" stroke="rgb(204, 204, 204)" stroke-width="1px"></line><line x1="39.98800086975098" y1="232.98953833946814" x2="34.98800086975098" y2="232.98953833946814" style="visibility: inherit;" fill="rgb(0, 0, 0)" stroke="rgb(204, 204, 204)" stroke-width="1px"></line><line x1="39.98800086975098" y1="203.8658460470346" x2="34.98800086975098" y2="203.8658460470346" style="visibility: inherit;" fill="rgb(0, 0, 0)" stroke="rgb(204, 204, 204)" stroke-width="1px"></line><line x1="39.98800086975098" y1="174.74215375460113" x2="34.98800086975098" y2="174.74215375460113" style="visibility: inherit;" fill="rgb(0, 0, 0)" stroke="rgb(204, 204, 204)" stroke-width="1px"></line><line x1="39.98800086975098" y1="145.61846146216757" x2="34.98800086975098" y2="145.61846146216757" style="visibility: inherit;" fill="rgb(0, 0, 0)" stroke="rgb(204, 204, 204)" stroke-width="1px"></line><line x1="39.98800086975098" y1="116.49476916973407" x2="34.98800086975098" y2="116.49476916973407" style="visibility: inherit;" fill="rgb(0, 0, 0)" stroke="rgb(204, 204, 204)" stroke-width="1px"></line><line x1="39.98800086975098" y1="87.37107687730054" x2="34.98800086975098" y2="87.37107687730054" style="visibility: inherit;" fill="rgb(0, 0, 0)" stroke="rgb(204, 204, 204)" stroke-width="1px"></line><line x1="39.98800086975098" y1="58.24738458486706" x2="34.98800086975098" y2="58.24738458486706" style="visibility: inherit;" fill="rgb(0, 0, 0)" stroke="rgb(204, 204, 204)" stroke-width="1px"></line><line x1="39.98800086975098" y1="29.123692292433475" x2="34.98800086975098" y2="29.123692292433475" style="visibility: inherit;" fill="rgb(0, 0, 0)" stroke="rgb(204, 204, 204)" stroke-width="1px"></line><line x1="39.98800086975098" y1="0" x2="34.98800086975098" y2="0" style="visibility: inherit;" fill="rgb(0, 0, 0)" stroke="rgb(204, 204, 204)" stroke-width="1px"></line></g><g transform="translate(29.988000869750977, 0)"><text style="text-anchor: end; visibility: hidden; font-family: &quot;Helvetica Neue&quot;, sans-serif; font-size: 12px; font-weight: 200;" x="0" y="378.60799980163574" dx="0em" dy="0.3em" fill="rgb(50, 49, 63)" stroke="none" stroke-width="1px">-20</text><text style="text-anchor: end; visibility: inherit; font-family: &quot;Helvetica Neue&quot;, sans-serif; font-size: 12px; font-weight: 200;" x="0" y="349.4843075092022" dx="0em" dy="0.3em" fill="rgb(50, 49, 63)" stroke="none" stroke-width="1px">0</text><text style="text-anchor: end; visibility: inherit; font-family: &quot;Helvetica Neue&quot;, sans-serif; font-size: 12px; font-weight: 200;" x="0" y="320.3606152167687" dx="0em" dy="0.3em" fill="rgb(50, 49, 63)" stroke="none" stroke-width="1px">20</text><text style="text-anchor: end; visibility: inherit; font-family: &quot;Helvetica Neue&quot;, sans-serif; font-size: 12px; font-weight: 200;" x="0" y="291.2369229243352" dx="0em" dy="0.3em" fill="rgb(50, 49, 63)" stroke="none" stroke-width="1px">40</text><text style="text-anchor: end; visibility: inherit; font-family: &quot;Helvetica Neue&quot;, sans-serif; font-size: 12px; font-weight: 200;" x="0" y="262.1132306319017" dx="0em" dy="0.3em" fill="rgb(50, 49, 63)" stroke="none" stroke-width="1px">60</text><text style="text-anchor: end; visibility: inherit; font-family: &quot;Helvetica Neue&quot;, sans-serif; font-size: 12px; font-weight: 200;" x="0" y="232.98953833946814" dx="0em" dy="0.3em" fill="rgb(50, 49, 63)" stroke="none" stroke-width="1px">80</text><text style="text-anchor: end; visibility: inherit; font-family: &quot;Helvetica Neue&quot;, sans-serif; font-size: 12px; font-weight: 200;" x="0" y="203.8658460470346" dx="0em" dy="0.3em" fill="rgb(50, 49, 63)" stroke="none" stroke-width="1px">100</text><text style="text-anchor: end; visibility: inherit; font-family: &quot;Helvetica Neue&quot;, sans-serif; font-size: 12px; font-weight: 200;" x="0" y="174.74215375460113" dx="0em" dy="0.3em" fill="rgb(50, 49, 63)" stroke="none" stroke-width="1px">120</text><text style="text-anchor: end; visibility: inherit; font-family: &quot;Helvetica Neue&quot;, sans-serif; font-size: 12px; font-weight: 200;" x="0" y="145.61846146216757" dx="0em" dy="0.3em" fill="rgb(50, 49, 63)" stroke="none" stroke-width="1px">140</text><text style="text-anchor: end; visibility: inherit; font-family: &quot;Helvetica Neue&quot;, sans-serif; font-size: 12px; font-weight: 200;" x="0" y="116.49476916973407" dx="0em" dy="0.3em" fill="rgb(50, 49, 63)" stroke="none" stroke-width="1px">160</text><text style="text-anchor: end; visibility: inherit; font-family: &quot;Helvetica Neue&quot;, sans-serif; font-size: 12px; font-weight: 200;" x="0" y="87.37107687730054" dx="0em" dy="0.3em" fill="rgb(50, 49, 63)" stroke="none" stroke-width="1px">180</text><text style="text-anchor: end; visibility: inherit; font-family: &quot;Helvetica Neue&quot;, sans-serif; font-size: 12px; font-weight: 200;" x="0" y="58.24738458486706" dx="0em" dy="0.3em" fill="rgb(50, 49, 63)" stroke="none" stroke-width="1px">200</text><text style="text-anchor: end; visibility: inherit; font-family: &quot;Helvetica Neue&quot;, sans-serif; font-size: 12px; font-weight: 200;" x="0" y="29.123692292433475" dx="0em" dy="0.3em" fill="rgb(50, 49, 63)" stroke="none" stroke-width="1px">220</text><text style="text-anchor: end; visibility: hidden; font-family: &quot;Helvetica Neue&quot;, sans-serif; font-size: 12px; font-weight: 200;" x="0" y="0" dx="0em" dy="0.3em" fill="rgb(50, 49, 63)" stroke="none" stroke-width="1px">240</text></g><line x1="39.98800086975098" y1="0" x2="39.98800086975098" y2="378.60799980163574" fill="rgb(0, 0, 0)" stroke="rgb(204, 204, 204)" stroke-width="1px"></line></g></g><g transform="translate(39, 0)" clip-path="url(#clip_0)"><clipPath id="clip_0"><rect width="780" height="378"></rect></clipPath><g><g><g><line x1="0" y1="0" x2="0" y2="378.60799980163574" fill="rgb(0, 0, 0)" stroke="rgb(60, 60, 60)" stroke-width="1px" opacity="0.25"></line><line x1="65.00099992752075" y1="0" x2="65.00099992752075" y2="378.60799980163574" fill="rgb(0, 0, 0)" stroke="rgb(60, 60, 60)" stroke-width="1px" opacity="0.25"></line><line x1="130.0019998550415" y1="0" x2="130.0019998550415" y2="378.60799980163574" fill="rgb(0, 0, 0)" stroke="rgb(60, 60, 60)" stroke-width="1px" opacity="0.25"></line><line x1="195.00299978256226" y1="0" x2="195.00299978256226" y2="378.60799980163574" fill="rgb(0, 0, 0)" stroke="rgb(60, 60, 60)" stroke-width="1px" opacity="0.25"></line><line x1="260.003999710083" y1="0" x2="260.003999710083" y2="378.60799980163574" fill="rgb(0, 0, 0)" stroke="rgb(60, 60, 60)" stroke-width="1px" opacity="0.25"></line><line x1="325.0049996376037" y1="0" x2="325.0049996376037" y2="378.60799980163574" fill="rgb(0, 0, 0)" stroke="rgb(60, 60, 60)" stroke-width="1px" opacity="0.25"></line><line x1="390.0059995651244" y1="0" x2="390.0059995651244" y2="378.60799980163574" fill="rgb(0, 0, 0)" stroke="rgb(60, 60, 60)" stroke-width="1px" opacity="0.25"></line><line x1="455.0069994926452" y1="0" x2="455.0069994926452" y2="378.60799980163574" fill="rgb(0, 0, 0)" stroke="rgb(60, 60, 60)" stroke-width="1px" opacity="0.25"></line><line x1="520.0079994201659" y1="0" x2="520.0079994201659" y2="378.60799980163574" fill="rgb(0, 0, 0)" stroke="rgb(60, 60, 60)" stroke-width="1px" opacity="0.25"></line><line x1="585.0089993476867" y1="0" x2="585.0089993476867" y2="378.60799980163574" fill="rgb(0, 0, 0)" stroke="rgb(60, 60, 60)" stroke-width="1px" opacity="0.25"></line><line x1="650.0099992752074" y1="0" x2="650.0099992752074" y2="378.60799980163574" fill="rgb(0, 0, 0)" stroke="rgb(60, 60, 60)" stroke-width="1px" opacity="0.25"></line><line x1="715.0109992027283" y1="0" x2="715.0109992027283" y2="378.60799980163574" fill="rgb(0, 0, 0)" stroke="rgb(60, 60, 60)" stroke-width="1px" opacity="0.25"></line><line x1="780.011999130249" y1="0" x2="780.011999130249" y2="378.60799980163574" fill="rgb(0, 0, 0)" stroke="rgb(60, 60, 60)" stroke-width="1px" opacity="0.25"></line></g><g><line x1="0" y1="378.60799980163574" x2="780.011999130249" y2="378.60799980163574" fill="rgb(0, 0, 0)" stroke="rgb(60, 60, 60)" stroke-width="1px" opacity="0.25"></line><line x1="0" y1="349.4843075092022" x2="780.011999130249" y2="349.4843075092022" fill="rgb(0, 0, 0)" stroke="rgb(60, 60, 60)" stroke-width="1px" opacity="0.25"></line><line x1="0" y1="320.3606152167687" x2="780.011999130249" y2="320.3606152167687" fill="rgb(0, 0, 0)" stroke="rgb(60, 60, 60)" stroke-width="1px" opacity="0.25"></line><line x1="0" y1="291.2369229243352" x2="780.011999130249" y2="291.2369229243352" fill="rgb(0, 0, 0)" stroke="rgb(60, 60, 60)" stroke-width="1px" opacity="0.25"></line><line x1="0" y1="262.1132306319017" x2="780.011999130249" y2="262.1132306319017" fill="rgb(0, 0, 0)" stroke="rgb(60, 60, 60)" stroke-width="1px" opacity="0.25"></line><line x1="0" y1="232.98953833946814" x2="780.011999130249" y2="232.98953833946814" fill="rgb(0, 0, 0)" stroke="rgb(60, 60, 60)" stroke-width="1px" opacity="0.25"></line><line x1="0" y1="203.8658460470346" x2="780.011999130249" y2="203.8658460470346" fill="rgb(0, 0, 0)" stroke="rgb(60, 60, 60)" stroke-width="1px" opacity="0.25"></line><line x1="0" y1="174.74215375460113" x2="780.011999130249" y2="174.74215375460113" fill="rgb(0, 0, 0)" stroke="rgb(60, 60, 60)" stroke-width="1px" opacity="0.25"></line><line x1="0" y1="145.61846146216757" x2="780.011999130249" y2="145.61846146216757" fill="rgb(0, 0, 0)" stroke="rgb(60, 60, 60)" stroke-width="1px" opacity="0.25"></line><line x1="0" y1="116.49476916973407" x2="780.011999130249" y2="116.49476916973407" fill="rgb(0, 0, 0)" stroke="rgb(60, 60, 60)" stroke-width="1px" opacity="0.25"></line><line x1="0" y1="87.37107687730054" x2="780.011999130249" y2="87.37107687730054" fill="rgb(0, 0, 0)" stroke="rgb(60, 60, 60)" stroke-width="1px" opacity="0.25"></line><line x1="0" y1="58.24738458486706" x2="780.011999130249" y2="58.24738458486706" fill="rgb(0, 0, 0)" stroke="rgb(60, 60, 60)" stroke-width="1px" opacity="0.25"></line><line x1="0" y1="29.123692292433475" x2="780.011999130249" y2="29.123692292433475" fill="rgb(0, 0, 0)" stroke="rgb(60, 60, 60)" stroke-width="1px" opacity="0.25"></line><line x1="0" y1="0" x2="780.011999130249" y2="0" fill="rgb(0, 0, 0)" stroke="rgb(60, 60, 60)" stroke-width="1px" opacity="0.25"></line></g></g></g><g><g><line x1="0" y1="349.4843075092022" x2="780.011999130249" y2="349.4843075092022" fill="rgb(0, 0, 0)" stroke="rgb(153, 153, 153)" stroke-width="1.5px"></line></g></g><g><g><line x1="65.00099992752075" y1="0" x2="65.00099992752075" y2="378.60799980163574" fill="rgb(0, 0, 0)" stroke="rgb(153, 153, 153)" stroke-width="1.5px"></line></g></g><g><g><g><g><g><path style="fill: none;" stroke="rgb(255, 112, 67)" stroke-width="2px" d="M65.00099992752075,320.3606152167687L65.03304903165169,325.56127455470323L65.25531633973718,309.15919510429427L65.29756698969007,319.643282894295L65.4081589687334,308.60238348376635L65.44291644786132,325.3366846777614L65.52687607276769,307.46868500135486L65.60704397267831,323.07746942251845L65.63611386431256,327.56450853085965L65.68694103508922,320.6203120843128L65.75744906417727,310.8532658476723L65.89476367652416,313.93659489248853L66.56553788410955,323.033332746869L66.6076079757293,320.5559848099556L66.71142901728021,304.71195220372886L66.9958083919631,315.84857633224243L67.02857972942657,321.1769328846819L67.15957480011383,302.3392148451827L67.27946553331348,306.16236902304036L67.32866767909195,310.3127629410464L67.39538398318423,320.71002819607247L67.52394151637421,319.62666963781135L67.60853309544655,299.9716892895757L67.79198036190867,311.3313340803159L67.83116152019831,318.4963243005403L67.87278021598523,320.4886096191401L67.91873231176733,320.4118129777159L67.93931596174437,329.9919127777197L68.11924234071041,307.6126296343975L68.24093865724139,294.29236253325274L68.3535167779492,314.30186798723656L68.45508084033595,305.7051655621322L68.48658826946749,321.4881215050993L68.51403313610355,326.0538823447391L68.55321429439319,323.51163283672986L68.76094665666156,292.78856689524383L68.8229684440924,299.7209774316557L68.87839985236393,305.11507395253943L68.965338689767,293.2933402605249L69.05949986049532,299.0491760089951L69.35814334349566,255.9185503321869L69.59936927656,291.088946187844L69.66707865148452,296.41999684237675L69.78940692218143,279.3307801911837L69.83860906795991,299.58012736266966L69.90550593038532,305.932444693718L69.94044396784636,317.21047931386744L70.28738680495951,299.8789239426021L70.81958249186607,288.5777479502309L71.19902582894298,234.25576373322113L71.4414253911727,200.29501928359514L72.07635876963138,276.7029306873643L72.27686879857447,278.4336398793628L72.49344851916631,267.7676835621131L72.59257504405578,277.4806733355813L72.70840321475995,271.75505078846555L72.96127516031132,307.0343648268585L73.04279724772043,297.5558996853445L73.12161096013254,294.6382243975119L73.23689745583732,314.440212732931L73.29702338077028,316.24503268568765L73.5027696013742,313.47211759169824L74.10962615903085,239.84495774594302L74.32846285878685,265.43787224034025L74.48897921694119,296.6440964886513L74.73498994583355,226.1240631545402L74.85533207486601,250.33869594727614L74.97070884973738,260.89825983314347L75.52962716994749,251.14271308712233L75.6631500572986,297.9157189775482L75.98481472777326,264.2022752073382L76.05044768186674,286.53903921894744L76.08628851099346,309.4531171239592L76.28490267743864,269.6909452346756L76.36064689818753,284.3659533860174L76.49940597719947,266.64576588968293L77.29648073881069,194.90309400194676L77.4597957511286,247.46112674274178L77.55476943435602,266.7369183015138L77.71212602168056,275.3209456937956L77.82425274655553,270.89115973175126L78.19764737947251,302.3202545603077L79.1435022075845,311.3970494166383L79.19460021586086,311.5329242840785L79.2470524116357,310.7135634622816L79.75451160690321,240.48895763172237L79.81147776100634,280.5485552637931L80.0840305648691,264.2450958720202L80.69016488919324,205.30106598893073L80.85004929318163,224.5352817055722L81.1748737344861,158.83726341529632L81.20710339695015,259.2461175712718L81.46196148416598,286.3039977020669L81.7585285463353,201.0189651893543L83.00429076577956,255.1497398303428L83.9874308896833,208.6526097224438L84.80418650960591,195.2960222919222L85.08296857596171,171.60546117548049L85.2200123508089,223.28899054301417L86.40248887449039,250.07837767143872L87.10729832787116,235.45652022839135L88.06371581847137,159.71091574933192L88.46717341385484,98.83279705065297L89.57832939594915,74.4815495711814L89.9818772704992,64.74105057939278L90.71079126135308,90.5510171209595L90.96032287774152,140.19198833237152L91.3932114814255,91.0252260838688L92.19795997219481,71.35852118446775L92.59591053841775,63.49183922470729L93.3090256751226,100.53586180436139L93.70986517467563,90.01585854180593L94.11007272006273,70.9547741676426L95.32477890620827,63.330340417977254L96.53984620902007,60.280566918111106L98.4574659860485,104.49361749436093L99.22917230185469,76.74587774866461L99.99284377183649,88.36326183848428L100.40370425887836,70.29373548631389L102.15295339026119,109.37259569041504L103.2864986056639,139.8572228411966L103.69492155520848,90.89131988739888L103.97460641322996,126.34873713857911L104.38438355027304,85.48792560635184L105.187958411877,69.1436009934609L106.85622713085013,62.60587114830457L107.3329914094852,115.03455764294137L108.09034333780737,111.54213071515193L108.91603659522002,79.56528303698099L110.967088980433,71.14309780957768L111.55372300477887,164.75611905241993L113.18885926962228,100.8508783718882L114.87753108023935,75.28878209967547L115.6214314127432,91.27526665398057L116.02416677479412,71.45853741251244L117.25837326091793,63.531845715925215L118.04587843087315,63.8560121123823L118.4408497845994,60.490835595873136L118.83997397998768,59.14476498926945L119.2414454337067,180.92584437484877L119.66738254156509,107.31876850085973L120.07255544111331,77.87593815126411L121.7103098017871,66.09880601142584L122.14103170547351,61.38795315549055L122.94298154207931,59.503612013116424L123.9514901117881,58.749875556166785L125.57362617664602,58.44838097338692L125.96462524704334,70.55973390309708L126.3654647465964,63.17232431215905L126.78616566279398,60.217360475783835L127.32946568718815,178.7337502631355L128.37092615269356,138.76922930077563L128.76661973975231,90.45612247123051L129.1959874559402,71.13087973941242L130.36022758797537,79.12757648459927L130.7692824916859,66.5994613447599L131.6144760490768,61.58821528882413L133.9055807381888,63.078559941541926L134.71014867062502,60.17985472753696L135.85877050684422,59.02037264193501L136.28867989803152,58.55657980769422L136.99944777640565,58.37106267399787L137.39514136346443,58.29685582051934L139.13084861986238,103.70013305532422L139.52311159859164,83.418170123234L140.31594323937426,68.3156988002138L141.12159452180927,62.27471027100569L141.5185520172,59.85831485932249L141.85926559182005,92.09276590802341L143.06196464881234,71.78553711412957L143.25732876526115,155.40227631773763L144.13782147677935,132.0577720289355L144.28226814328497,202.22765027175814L145.01993921329577,115.83949085962342L145.3474720295972,111.86410400182478L146.1810195745011,79.6940723516501L147.5293389271643,66.82605969158021L147.87546925177838,86.1427561531965L148.3156704679542,69.4055332121988L149.13639837120573,62.71064403579976L149.34918636680177,147.40376524254071L150.56425366961358,93.90993684793648L150.99452417746713,72.5124054900948L151.3966275853521,63.95339294695816L151.79981434323588,60.529787929703446L152.60221557567448,60.90776746034766L153.00603428772422,59.31153773505929L153.4381103789091,58.67304584494394L153.84337355762386,58.417649088897804L157.50771464937128,58.315490386479325L157.8988039989352,58.27462690551198L158.73704606050055,58.258281513124984L159.79909017598297,58.251743356170266L162.63764773115113,58.24912809338832L163.03433438904216,58.248081988275544L164.68382504136957,58.2476635462304L165.08953961591718,58.247496169412386L165.49769172796212,58.24742921868517L166.34902426867944,58.24740243839426L167.1640645844373,58.247391726277954L168.8163538909283,58.247387441431385L172.2419968662752,58.24738572749277L172.63805157000024,66.11078196087436L172.9734386737929,90.22519890477918L173.40379946081305,71.03851031283187L174.22958299739227,63.36383487605292L174.54637259287233,104.8532139087647L175.77037753317418,76.8897163144261L177.00304927346636,65.70431727669063L179.71169510794613,83.07292688092161L180.1288751366476,68.17760150328883L180.4709428987662,87.55708364665293L180.84108748168674,95.30887650399859L181.49046552679604,142.0951320855871L181.83072770558329,128.4823358736213L182.1133014969349,139.6377219955221L182.94080033767887,90.80351954912908L183.2401660540117,115.8290877779952L183.60615779527024,110.98623200040049L184.41794806103175,79.34292355108039L185.19344610183367,66.68560017135235L185.6100844555358,62.49638158823416L187.19060182460677,59.9469833862139L189.89825458825425,58.92722410540574L191.1111551910685,58.51932039308252L191.51253636562092,58.35615890815319L192.29453450641563,58.290894314181514L193.09197038469313,58.2647884765928L194.31678783749408,58.254346141557335L198.60838857854202,58.250169207543195L199.75547566892965,58.24849843393747L200.14791920599205,58.24783012449524L200.52664030973642,58.2475628007183L201.3144163171914,58.247455871207535L202.07619192467527,58.247413099403275L202.45410051592054,58.247395990681525L203.22860548589026,58.24738914719279L205.12825970877208,58.24738640979734L205.5419188499775,58.247385314839164L207.80584950995308,58.24738487685585L208.63063997570006,58.2473847016625L209.04339632523985,58.24738463158525L209.42509664148088,66.11078152251139L209.82259581187103,61.39274335992479L210.22262279892496,59.50552809489011L210.6500043734484,58.75064198887628L211.03847562718192,58.44868754647075L211.43425949340727,58.32790576950856L211.82462660963864,58.279593058723606L212.2161673550354,58.260267974409714L213.03111739162668,58.25253794068408L214.21657312780482,58.249445927193904L214.6282461273458,58.2482091217978L215.03937745188736,58.247714399639335L215.85622335097653,58.24751651077594L217.4367407200475,58.2474373552306L218.12575131927923,73.97419953092651L218.83317886849045,100.36025208298406L220.4087308834003,75.09253158411389L220.73120806637402,95.56532029162094L221.12202657843824,73.17455886756858L221.91043454005916,64.21825429794762L222.69207156418756,60.63573247009924L223.5011534549521,59.202723738959946L224.29118644157114,58.62952024650423L224.68019937030408,58.400238849521884L225.87062046064335,58.30852629072899L226.5508739807182,100.20995816831606L226.93609518445527,75.03241401824664L227.26606553825403,93.79385172772805L227.4960968546642,144.9839652501709L227.9145407916976,92.94201685098858L228.3000328329344,72.12523749131566L228.97333485718366,104.86293187977776L229.35286847342715,84.75700042178835L231.0556238340285,68.85123091963555L231.35273257119718,106.1744615574247L231.9642836455153,122.85117535008638L232.27962877433035,122.53217471696706L232.5320493240489,147.74218675813643L233.244893623254,147.34166234932817L233.83531937259562,156.79227104230787L234.39432797197236,138.7297453001746L234.60197005507413,233.72889494976297L235.01030272545214,235.9064132899051L235.56263066650294,200.95527910626873L235.6703337122162,242.0186038655135L235.8458364120205,233.10632147479427L236.57303509870962,191.0981346924943L237.58127283091875,162.9366199855253L237.75912278905378,213.70547868562107L238.43522346746653,120.43062222516863L238.79968046289346,101.4686057852208L239.3914603997336,121.84254380997783L240.9440815063357,110.77048210687451L242.85781927920175,79.25662359367004L245.6989949302004,66.65108018838822L246.1083206714107,61.60886282627547L246.9200206580056,59.591975881430415L247.32934639921578,58.785221103492404L247.73659571959504,58.46251919231719L248.1682204149471,58.33343842784706L248.57158773116402,58.28180612205904L248.9746842098812,58.26115319974383L249.79306485480203,58.25289203081775L250.1982377543502,58.2495875632473L251.85693688166737,58.248265776219114L252.2727627228703,58.24773706140786L253.0912336469577,58.247525575483394L253.95204550016453,58.247440981113584L255.1711753654718,58.24740714336565L256.0139313853654,58.247393608266464L256.42614605990576,58.2473881942268L256.84016631777746,58.24738602861089L258.0889077497184,58.24738516236465L258.50238633259073,58.24738481586604L258.9579350070827,58.247384677266666L259.26145356507766,103.68034459802317L259.6681612104574,76.4205685901295L260.4984587053649,65.516658186972L260.915097059067,61.15509402570905L261.36297200440094,59.41046836120381L262.1835193493194,58.71261809540175L262.58399773220617,58.43347798908087L263.00668479006816,58.32182194655263L263.41835778960916,58.27715952954128L263.8281349266522,58.25929456273673L264.27086395949186,58.25214857601492L265.09204325857615,58.24929018132622L265.5049801664491,58.248146823450725L266.7559785775542,58.247689480300494L268.35933657576635,58.24750654304046L269.58650128689794,58.2474333681364L269.9849935281203,58.2474040981748L270.3789718110144,58.24739239019016L271.19581771010354,58.24738770699628L271.61480332213637,58.24738583371868L272.0366778674993,58.24738508440771L272.435711783721,58.247384784683334L273.2385644119924,58.247384664793515L273.63380660321843,58.24738461683762L274.0292293527775,58.2473845976553L275.63574712181946,58.247384589982346L277.2020906617396,58.24738458691314L277.5799089738183,58.247384585685495L278.3421359771351,58.247384585194425L278.720947360046,58.247384584997974L279.0999393012901,58.247384584919416L279.5082719716681,58.24738458488798L279.89259038373956,58.24738458487542L280.27726991247727,58.24738458487036L281.40747479871703,58.24738458486837L281.8131893732647,58.24738458486752L284.0871410207291,58.247384584867234L284.8897228115008,58.24738458486712L285.27602736523676,58.24738458486706L285.659352706476,58.24738458486706L286.0531504310369,58.24738458486706L286.8451695593204,58.24738458486706L288.0016456830309,58.24738458486706L288.38388767427136,58.24738458486706L289.54433608131075,58.24738458486706L289.9337101267099,58.24738458486706L290.3210980304446,58.24738458486706L291.0699637171096,58.24738458486706L291.85430911623496,58.24738458486706L293.00654211911683,58.24738458486706L293.3933883478522,58.24738458486706L294.18351161363785,58.24738458486706L295.33267512485645,58.24738458486706L295.72069498275715,58.24738458486706L296.1086245614912,58.24738458486706L296.89937978144286,58.24738458486706L297.2841495893471,58.24738458486706L297.66476655558944,58.24738458486706L298.4273546755724,58.24738458486706L298.82043016680075,58.24738458486706L299.2471797871583,58.24738458486706L301.1593828141927,58.24738458486706L302.7283444499433,58.24738458486706L303.1116697911825,58.24738458486706L303.88184136115706,58.24738458486706L304.6760271894382,58.24738458486706L305.42444148027033,58.24738458486706L305.7986486256864,58.24738458486706L306.1791753127621,58.24738458486706L306.59518171229826,58.24738458486706L306.9766111910396,58.24738458486706L307.35181140728787,58.24738458486706L308.1092536147766,58.24738458486706L308.88637668057675,58.24738458486706L309.660971929713,58.24738458486706L310.7869336951242,58.24738458486706L311.56893183591893,58.24738458486706L311.9562294604871,58.24738458486706L312.3378394975615,58.24738458486706L313.87339784168273,58.24738458486706L314.6316525616705,58.24738458486706L315.0225613529013,58.24738458486706L315.7799132812235,58.24738458486706L316.94875765075346,58.24738458486706L317.6811022499369,58.24738458486706L318.0581983286831,58.24738458486706L318.44134311158916,58.24738458486706L319.61533339361347,58.24738458486706L320.7588093173385,58.24738458486706L321.1241691044311,65.23707073505113L321.82229789948593,61.04325904494067L322.5935528194592,61.98686667521554L323.3400712477935,66.73286357119048L325.27890662896493,61.641576179396395L326.02488338229983,59.605061222678785L326.4353827526754,58.79045523999173L326.8271943355719,58.46461284691691L327.21557531013883,58.33427588968692L328.36627356718907,58.282141106794995L330.68446200627085,58.261287193638225L331.48514793454467,58.25294562837547L331.8646815507882,58.249609002270404L332.2457499128633,58.24827435182834L332.6255543666065,58.24774049165154L332.9998517911891,58.247526947580866L334.55337568945686,58.24744152995254L335.3180402302708,58.247407362901185L335.6998308256784,58.247393696080735L336.8813142785277,58.24738822935245L337.2570561697754,58.24738604266122L337.63839536935023,58.247385167984646L338.01738731059424,58.24738481811414L338.39520562267296,58.24738467816587L339.19643322594624,58.24738462218653L339.57569600469003,58.24738459979483L339.9464725417766,58.247384590838124L340.3275409038517,58.24738458725551L341.11585858630605,58.24738458582243L342.25111910587344,58.24738458524922L343.01668643835313,58.247384585019915L343.4185190087384,58.24738458492823L344.1858016453828,58.247384584891506L344.57129368661964,58.247384584876784L345.73273516449126,58.24738458487093L346.1441373265326,58.2473845848686L346.89219050069846,58.24738458486769L347.2774117044355,58.24738458486729L349.9858769805822,58.24738458486712L350.37046623015334,58.24738458486706L350.7448539339025,58.24738458486706L351.15354772094685,58.24738458486706L351.53587999135385,58.24738458486706L351.92272622008915,58.24738458486706L352.30225983633267,58.24738458486706L353.0757717354701,58.24738458486706L353.48897948084266,58.24738458486706L353.8748326387458,58.24738458486706L355.0322115541219,58.24738458486706L355.44198869116497,58.24738458486706L355.77421602412784,86.20612918560317L356.1830000903387,69.43088242516149L356.8136903479688,101.16405754699707L358.6680244292345,92.88826914517915L358.9378688581003,131.51607068555626L359.2187273452871,135.60895130765803L359.7163461113988,139.86723586281772L361.0763114765491,118.85406969678348L361.98271430887183,132.2915724496949L363.07102966182487,95.72845664975523L364.60794219344456,82.85063186732538L365.7525917463348,68.08868349785041L366.1931540791769,62.18390415006036L366.5774724912484,59.82199241094435L367.36010258620905,58.87722771529798L367.73981676078563,58.49932183703936L368.12404489369055,58.34815948573595L368.98395395523175,58.28769454521455L369.36448064230746,58.26350856900609L370.15198581226264,58.25383417852265L370.9481577822082,58.2499644223293L371.331573402614,58.24841651985196L372.061299905967,58.24779735886102L372.83309650093975,58.247549694464624L373.2185885421765,58.247450628706076L374.0180105621185,58.2474110024026L374.6767776405506,58.24739515188122L375.0738254151079,58.24738881167275L375.487755393813,58.24738627558935L375.86918487255434,58.247385261155955L376.9453125380211,115.03858482562794L377.33793663341663,80.96386468117134L377.718734157992,67.33397662338876L378.9151136733247,61.88202140027573L379.29843901456394,59.70123931103046L382.47030725269383,58.828926475332366L383.6662353721936,58.480001341053196L384.0931655508843,58.34043128734152L384.8641496333579,58.28460326585679L385.6585160199721,58.26227205726292L386.0434663862095,58.25333957382543L387.24463069737016,58.2497665804504L387.637615909432,58.24833738310036L388.4222321460571,58.24776570416043L388.839953849758,58.247537032584376L389.2425086534758,58.24744556395399L389.51334615317376,117.65974125306622L390.6815585685378,82.01232725214669L393.82733612753015,67.7533616517789L394.23476600624247,62.0497754116318L394.6386749974588,59.768340915572935L395.42184676741886,58.855767117149355L396.20366434988034,58.49073759777997L396.6229207994129,58.344725790032214L397.029989561459,58.28632106693311L397.81577942724954,58.26295917769346L398.60021510554145,58.25361442199761L398.9861585426111,58.249876519719294L399.4071302963084,58.248381358807876L400.57841220333563,58.247783294443366L400.9704043445652,58.24754406869755L401.361313135796,58.24744837839921L403.3628925377309,58.2474101022799L404.16457153683695,58.247394791832164L404.5781403988758,58.24738866765307L405.3567982105076,58.24738621798144L405.7517695642338,58.24738523811283L406.5206772258764,58.24738484616529L408.89863047322484,58.247384689386365L409.32727595608037,58.24738462667477L410.131934167683,58.24738460159017L410.93234925845724,58.24738459155628L412.57579120662473,58.24738458754268L413.3708798265714,58.24738458593731L414.1598294631917,58.24738458529515L414.9727933581186,58.247384585038276L415.76156243640577,58.2473845849355L416.5636025521781,58.24738458489446L416.95712943923934,58.24738458487798L417.3744900262739,58.24738458487144L417.7803851591547,58.24738458486877L418.1780648878779,58.24738458486769L419.79559671524095,58.24738458486729L420.60892172683396,58.24738458486712L421.00317084722775,58.24738458486706L423.43375684868425,58.24738458486706L424.2450957186129,58.24738458486706L425.0790946593496,58.24738458486706L425.48264253389954,58.24738458486706L425.9030726125975,58.24738458486706L428.2963733182621,58.24738458486706L429.48255128777276,58.24738458486706L430.29407071603464,58.24738458486706L431.52024235633405,58.24738458486706L432.70813563000945,58.24738458486706L433.14752433368625,58.24738458486706L433.93909206613694,58.24738458486706L434.3299105782012,58.24738458486706L434.7272291902581,58.24738458486706L435.1178671439892,58.24738458486706L435.93552555557744,58.24738458486706L436.33636505513056,58.24738458486706L437.13109255841096,58.24738458486706L437.52705698296955,58.24738458486706L437.9215769408629,58.24738458486706L439.1621932478129,58.24738458486706L439.57919271818133,58.24738458486706L440.3165929506924,58.24738458486706L443.52168392211854,58.24738458486706L443.9260443091677,58.24738458486706L444.31884896289625,58.24738458486706L444.7105702666262,58.24738458486706L445.9120054152865,58.24738458486706L446.311310169008,58.24738458486706L446.7065523602339,58.24738458486706L447.91719598388397,58.24738458486706L448.3071117042826,58.24738458486706L448.7305209954771,58.24738458486706L449.9244629733125,58.24738458486706L454.72189788462975,58.24738458486706L455.91123562497023,58.24738458486706L456.6150520075188,58.24738458486706L457.007134427915,58.24738458486706L457.6742974688377,113.29116301756642L458.08199818504977,80.26489595794675L459.3167463461729,67.05438913409893L460.5305497406528,61.77018640455981L460.9320211943718,59.656505312744116L461.3318676230927,58.81103287601786L461.756360264286,58.47284390132734L462.1566580888396,58.33756831145115L462.54395571340774,58.283458075500675L462.937482600469,58.26181398112044L463.3360651208579,58.253156343368346L464.1541749282789,58.24969328826751L464.94682601072844,58.24830806622725L465.22046216459,118.5337970227485L466.0067034262133,82.36194956001964L466.82219513780404,67.8932105749281L467.43663514545227,149.476791858192L467.8600444366468,94.73914749419703L468.2527588112089,72.844089748599L468.6444801149388,64.08606665035984L469.05344473948276,60.58285741106414L469.4891319973302,59.181573715345905L471.08210789138735,58.62106023705854L473.1035487099667,58.39685484574369L473.5038465345204,58.30717268921774L474.2888238878117,58.27129982660733L474.7124137373394,58.256950681563126L476.3122508480555,58.251211023545466L476.71137504344375,58.24891516033841L477.1392080138001,58.24799681505556L477.9241853670914,58.24762947694245L478.9764793325847,58.247482541697195L480.20039399372,58.247423767599116L480.99855210533,58.24740025795984L481.79327960861053,58.24739085410414L482.19123017483344,58.24738709256184L483.0039232322606,58.24738558794496L483.39979737765253,58.24738498609821L484.4320493681681,95.81694780259869L484.8523891676995,73.2752098719597L485.2568398339152,64.25851469970411L486.0627619538498,60.65183663080188L486.46928904089657,59.209165403241L486.8638089987899,58.63209691221664L487.5594099771811,70.63322027862898L487.95194379341,63.20171886237182L488.3089076180119,75.08220136501001L488.6563018509579,83.32923744115737L489.0594886088416,68.28012572738311L489.42051499593913,76.23985334224159L491.4599213686651,65.44437208781682L491.8548927223914,61.12617958604699L492.714711504766,59.39890258533899L494.2996525529987,58.70799178505581L494.69083218172915,58.431627464942494L495.5279908932957,58.32108173689727L496.99881907498894,58.27686344567911L497.799866119929,58.25917612919187L498.63305254816663,58.252101202596975L499.42425916395104,58.24927123195897L499.8310570884976,58.248139243703804L500.2171810839003,58.24768644840174L500.6395973042626,58.247505330280944L501.43495676170915,58.247432883032616L502.6086762062337,58.24740390413331L502.9956127141356,58.24739231257354L503.81588922155424,58.24738767594965L504.21582592944156,58.24738582130004L504.6177487789935,58.24738507944022L505.4345946780826,58.247384782696315L507.0522167846123,58.24738466399873L507.8336732504076,58.247384616519696L508.2249431583046,58.24738459752808L509.0573170740432,58.247384589931414L509.47061509858224,58.24738458689279L510.6446956597731,58.24738458567731L511.06837578846734,58.24738458519113L513.0345657571083,81.83757534186782L513.4421761941538,67.68346088766731L513.8780440103344,62.02181510598717L514.2848419348809,59.75715679331512L515.0747846423333,58.85129346824624L515.7290377624372,120.52241272110211L516.1194048786685,83.15739583936107L516.460028174122,104.90724137513087L516.8555412028477,76.91132730097257L517.2464499940786,65.71296167130919L517.5985387436859,84.82380617631503L518.6005472134019,104.70009474113948L519.7348146621372,117.01916401093428L520.3258723656448,130.68389940658227L520.9682086357618,92.46425512619112L521.2096151271594,140.95728353446412L521.5772318934162,120.16379953421506L521.8597154056013,133.6891751534406L522.128295926135,142.59416847622282L523.2462228457218,152.27214118674675L524.430234115235,157.8907518085023L524.9087136980347,174.99127912634563L525.123939231128,184.45262235980198L525.7834285428927,212.70106117882867L526.0979611592086,159.34583981723696L526.3579651589187,160.7202312606984L527.0079751581939,183.11275705740812L527.9268365155027,129.16259202443564L528.1804306943866,150.39435368112385L528.3941214816483,178.9824060255783L528.9816582976598,143.23724544961775L529.2365163848757,156.02421505119676L529.5812925219913,133.18025829109214L530.5611825958986,110.06330328668224L531.1347261410924,141.8809274172495L531.4011399616287,148.4920016880654L531.6401991946955,163.36838215921384L531.9051685485666,155.33956204730507L532.2272846148742,149.50690169622263L532.4816010270906,159.40578831861166L533.23850155958,98.71074607836488L533.5804790425319,103.2651845517754L534.734337070412,83.24419072181445L536.5693514100326,111.93164547829628L541.3590223130252,79.72108894223874L541.6522490460316,120.1332232229691L542.0828806705513,83.00172004010784L542.4969009284231,68.14911876696334L544.1631835057318,62.20807825770555L545.4162583376678,59.831662054002436L545.852216433015,58.88109557252113L546.6321381529788,58.500868979928725L547.0483251108479,58.34877834289165L547.4609911812212,58.287942088076875L547.8706780390977,58.263607586150954L548.7456637214555,58.25387378538056L549.5361481039073,58.24998026507245L549.9475502659485,58.24842285694916L550.2869096530702,88.82767680075506L551.0860608355124,70.47950147122219L551.5455817933333,63.14023133940913L551.973324484523,60.204523286683866L552.7949551794402,67.76734775332386L553.5034660786501,62.055369852249726L555.8700441510113,79.86592637359922L556.6504172668078,66.89480130035992L558.670865014555,78.30685587775127L559.0919270474188,66.27117310202073L560.6783125623166,77.1836938296426L562.7140174892133,66.69561905155024L563.1370656637416,61.62667837154038L564.7814104035747,59.59910209953637L566.4506721933801,58.78807159073477L567.6606838628642,58.46365938721408L568.9621483280797,58.33389450580586L569.3786964026152,58.28198855324251L569.7838693021635,58.26122617221722L571.0520207549162,58.25292121980709L571.4658604544546,58.24959923884302L572.698893311413,58.24827044645741L573.5526633896277,58.247738929503214L573.9638849933358,58.24752632272151L574.3752871553771,58.24744128000884L577.2630468563237,60.868539569242785L577.6853727975194,59.29584657861733L578.1054417595512,58.666769382367136L578.4653847966498,79.38419695441917L579.3592388248198,66.70210953268793L579.7854467701778,61.62927456399541L580.2060574072088,59.600140576518356L580.5499307526587,87.62094235103672L580.9591662147025,74.3653615351999L581.2982547643243,95.27445227205538L581.6428503431067,113.24890702330066L581.9214518511295,136.16548276171287L582.2567486757555,119.12078999388757L583.1592695039159,128.02970672467154L583.8551413198066,110.62421496643299L585.1689740308417,159.57950746460992L585.4016234430821,175.66678138878865L585.6682178219517,172.4908725019571L586.0389943590382,158.9885581844024L587.945509798579,164.94587245142964L588.4688581271621,168.2025089270135L589.7727601298749,184.3582465863881L590.015881925437,182.95714473118093L590.9483754368973,172.785885532595L591.443737223845,167.8436710843876L591.6780116610838,178.09873606792675L592.1968460313385,169.9688112985203L592.445745693561,185.06476753499086L592.925850301359,181.49233157307603L593.100359930331,208.89581255781926L594.3075729456516,216.36236187662456L594.4523807288235,231.58093236696874L594.5742576036876,247.27917901960947L595.8190267522996,195.89356694164744L596.0562804020351,187.57127287328464L598.7500301740314,109.97693990023407L599.129744348608,88.55002516751688L600.2291640390488,83.47410234952201L600.621427017778,83.19115475987013L601.0280443839913,68.22489265486826L601.792167249806,62.238387812867586L602.5721792489362,72.94944740766232L603.3883931938594,64.12820971398514L604.5587723092211,71.95795463056334L604.9531117087813,63.73161260314555L605.7314084037469,60.441075792178424L606.1679081740934,59.124861067791585L606.9815943023528,67.33548286576689L607.8205585972507,61.882623897227006L608.2134535301459,59.70148030981102L609.021993745911,58.82902287484461L609.4143470038068,58.48003990085806L610.980239147894,58.34044671126344L611.3955233140978,58.28460943542558L612.1929591923753,58.26227452509045L612.5796248627775,58.25334056095642L612.9851588789919,58.24976697530275L613.4042347701912,58.24833754104134L614.2749773317204,58.247765767336716L614.6649833312855,61.74238013294689L615.0839689433183,59.64538280409897L615.5249826719931,58.80658387255983L617.2036334951214,58.471064299944146L618.050542356677,58.336856470897885L618.4637501020497,58.28317333927936L618.8593534099418,58.261700086632004L619.6743937256998,58.25311078557297L620.4961146997836,58.249675065149404L621.3276761030229,58.24830077697999L622.1506609854385,58.24775106171222L622.5739799974665,58.247531175605104L622.979333455348,58.2474432211622L623.8201936127437,58.24740803938511L624.2187761331326,58.24739396667428L624.6073376660327,58.24738833758994L625.0290316530625,58.24738608595618L625.4236418901223,58.247385185302676L625.839738568825,58.24738482504125L626.6429523137627,58.247384680936705L627.0409028799857,58.24738462329486L628.2763732744414,58.24738460023815L628.6799211489915,58.247384591015475L629.5025449147408,58.24738458732645L629.9102456309529,58.247384585850796L631.1356950379198,58.24738458526059L631.540055424969,58.247384585024406L631.9446866495177,58.24738458492999L632.3468803365693,58.247384584892245L632.7489837444542,58.24738458487707L633.5777464935302,58.24738458487104L635.2201050916989,58.2473845848686L636.0727918199148,58.24738458486769L636.4757980194654,58.24738458486729L636.8819639898459,58.24738458486712L638.0841213718386,58.24738458486706L638.4742176505704,58.24738458486706L639.3050568204774,58.24738458486706L640.9315262853303,58.24738458486706L641.3619773515171,58.24738458486706L641.7533375385806,58.24738458486706L642.1655522131209,58.24738458486706L642.9835717413756,58.24738458486706L644.6127495812257,58.24738458486706L645.0159363391094,58.24738458486706L645.8375670340265,58.24738458486706L646.2384968127461,58.24738458486706L646.6404196622981,58.24738458486706L647.0810722743066,58.24738458486706L647.8996334775605,58.24738458486706L649.1257148386934,58.24738458486706L649.555985346547,58.24738458486706L649.9339842169588,66.9844922725971L650.3418654915041,61.74222765995904L650.7494759285496,59.64532181490381L651.8338189981739,81.52303946497989L652.2707701643532,67.55764653691216L653.8255579709529,81.19312627869118L654.1522782747553,99.7529797069979L654.9304846905543,89.7027057028605L655.3661719484016,70.82951303206443L655.7240385646693,84.2492944142981L657.2936321545858,98.35431465492167L658.4923589282491,74.2901566128889L659.2495302982383,64.66449339607578L660.3979715761244,60.814228109350495L660.7975471673454,71.50607275748251L661.208497933554,63.55085985391321L661.6196292580954,60.36877469248549L662.021190990981,59.09594062791439L662.8156476567618,58.58680700208595L663.2452862104494,58.38315355175456L663.6590356308214,58.30169217162205L664.8967630044414,58.26910761956901L665.3020261831562,58.256073798747764L666.1220318530751,58.25086027041931L666.5171837651344,58.24877485908797L666.9242525271806,58.24794069455538L668.1362503383291,58.24760702874232L668.962304712408,58.247473562417156L669.3670262161235,58.2474201758871L669.7736435823366,58.247398821275056L670.1692468902289,58.24739027943025L673.0147559412226,58.24738686269234L673.4197482824379,58.247385495997094L674.6662327352145,58.2473849493191L676.7022987787776,58.247384730647866L678.327684893632,58.24738464317937L679.1098635927597,58.247384608191965L679.963091995975,58.247384594197L680.7814726408957,58.247384588599004L681.1771662279546,59.994806123905846L681.5773737733416,58.94635320048252L681.9681020062394,63.7692366437513L683.6074813919113,60.45612540842069L684.0116612206273,59.13088091428847L684.4099729035165,58.600783116635625L685.2214020526117,58.388743997574466L685.6406585021442,58.30392834995001L686.0482689391896,58.27000209090022L687.6543353123989,58.25643158728025L688.5001608239558,58.25100338583229L689.3104163438857,58.248832105253086L690.1087550138287,58.247963593021495L690.5319837466901,58.2476161881288L691.3594825874341,58.247477226171725L693.0035564897676,58.24742164138888L693.8559723804838,58.24739940747577L694.2751385508496,58.247390513910545L695.4905669703278,58.24738695648443L696.7575447939149,58.247385533514034L698.3703821046166,58.24738496432582L699.2122353328446,58.24738473665059L699.629234803213,58.24738464558044L700.8678649684986,58.24738460915239L702.5332447541415,58.247384594581206L702.937514862024,58.247384588752766L703.3549657282252,58.247384586421276L703.7600483486068,58.24738458548876L704.990643668068,58.2473845851157L705.3891359092904,58.24738458496648L705.7950310421711,58.2473845849068L706.6112449870943,58.24738458488292L707.0469322449418,58.24738458487343L707.4515634694906,58.24738458486962L708.2518882810982,58.24738458486803L708.6536305723171,58.24738458486746L709.884677287611,58.247384584867234L710.2819056205013,58.24738458486712L711.082230432109,58.24738458486706L711.8960068395348,58.24738458486706L712.2933254515918,58.24738458486706L712.7348808552662,58.24738458486706L715.5563756479534,58.24738458486706L715.9631735725,58.24738458486706L716.3714159637113,58.24738458486706L716.7761374674267,58.24738458486706L719.1966122022278,58.24738458486706L719.6096393892673,58.24738458486706L720.0279027679675,58.24738458486706L720.4284714300209,58.24738458486706L720.8603669628725,58.24738458486706L721.6616848453124,58.24738458486706L722.8085913773668,58.24738458486706L724.0358463676652,58.24738458486706L725.6159123409033,58.24738458486706L726.0377868862662,58.24738458486706L726.4435014608138,58.24738458486706L726.8449729145327,58.24738458486706L727.2440068307544,58.24738458486706L728.0292550215456,58.24738458486706L728.419622137777,58.24738458486706L730.0555709151195,58.24738458486706L731.2581796929452,58.24738458486706L731.6769847466448,58.24738458486706L732.8868158577958,58.24738458486706L733.2885581490144,58.24738458486706L733.6890365319013,58.24738458486706L734.1251751855816,58.24738458486706L734.5375704184551,58.24738458486706L735.3320270842358,58.24738458486706L735.7277206712947,58.24738458486706L736.1191711375249,58.24738458486706L736.5201911954111,58.24738458486706L736.9519964490963,58.24738458486706L738.5499376973145,58.24738458486706L738.941749280211,58.24738458486706L739.3298594172783,58.24738458486706L740.5417669492602,58.24738458486706L741.3164524775631,58.24738458486706L741.7045626146303,58.24738458486706L742.1258052058272,58.24738458486706L742.9171021007783,58.24738458486706L743.313427642003,58.24738458486706L743.7149893748885,58.24738458486706L744.4995153323472,58.24738458486706L744.9269871860371,58.24738458486706L746.1222833513709,58.24738458486706L746.900670325503,58.24738458486706L747.7445096953953,58.24738458486706L748.1495923157771,58.24738458486706L748.9540699690467,58.24738458486706L750.1706720176901,58.24738458486706L750.9745177167938,58.24738458486706L751.3619056205285,58.24738458486706L751.7601270242511,58.24738458486706L752.5612643483578,58.24738458486706L753.3936382640965,58.24738458486706L753.7896929678213,58.24738458486706L754.1782545007216,58.24738458486706L755.7623830364552,58.24738458486706L756.1673753776703,58.24738458486706L756.9586722726211,58.24738458486706L757.7316424967593,58.24738458486706L759.7591320194986,58.24738458486706L761.377837476027,58.24738458486706L761.7782255797471,58.24738458486706L762.1704885584764,58.24738458486706L762.5595917663759,58.24738458486706L767.3854646151615,58.24738458486706L768.1812754684408,58.24738458486706L769.0066978883536,58.24738458486706" fill="none"></path></g></g></g></g><g opacity="0.2"><g><g><g><path style="fill: none;" stroke="rgb(255, 112, 67)" stroke-width="2px" d="M65.00099992752075,320.3606152167687L65.03304903165169,327.6415382898771L65.25531633973718,299.97403061206523L65.29756698969007,326.1853536752554L65.4081589687334,301.4302152266869L65.44291644786132,336.3786459776071L65.52687607276769,295.6054767682002L65.60704397267831,333.4662767483638L65.63611386431256,330.55390751912046L65.68694103508922,315.99206137290366L65.75744906417727,304.34258445593025L65.89476367652416,315.99206137290366L66.56553788410955,329.09772290449877L66.6076079757293,318.90443060214704L66.71142901728021,294.14929215357853L66.9958083919631,323.27298444601206L67.02857972942657,324.72916906063375L67.15957480011383,289.7807383097135L67.27946553331348,308.71113829979527L67.32866767909195,313.07969214366034L67.39538398318423,327.6415382898771L67.52394151637421,318.90443060214704L67.60853309544655,286.8683690804702L67.79198036190867,318.90443060214704L67.83116152019831,323.27298444601206L67.87278021598523,321.81679983139037L67.91873231176733,320.3606152167687L67.93931596174437,336.3786459776071L68.11924234071041,292.69310753895684L68.24093865724139,285.4121844658485L68.3535167779492,327.6415382898771L68.45508084033595,299.97403061206523L68.48658826946749,332.0100921337421L68.51403313610355,329.09772290449877L68.55321429439319,321.81679983139037L68.76094665666156,272.3065229342534L68.8229684440924,304.34258445593025L68.87839985236393,308.71113829979527L68.965338689767,285.4121844658485L69.05949986049532,302.8863998413086L69.35814334349566,227.16479988098143L69.59936927656,314.53587675828203L69.66707865148452,299.97403061206523L69.78940692218143,267.9379690903884L69.83860906795991,313.07969214366034L69.90550593038532,310.16732291441696L69.94044396784636,324.72916906063375L70.28738680495951,288.3245536950918L70.81958249186607,281.0436306219835L71.19902582894298,198.04110758854793L71.4414253911727,177.65452298384446L72.07635876963138,327.6415382898771L72.27686879857447,279.5874460073618L72.49344851916631,260.65704601728L72.59257504405578,283.9559998512268L72.70840321475995,267.9379690903884L72.96127516031132,330.55390751912046L73.04279724772043,291.2369229243352L73.12161096013254,292.69310753895684L73.23689745583732,327.6415382898771L73.29702338077028,317.44824598752535L73.5027696013742,311.62350752903865L74.10962615903085,190.76018451543953L74.32846285878685,282.4998152366051L74.48897921694119,317.44824598752535L74.73498994583355,179.11070759846612L74.85533207486601,266.4817844757667L74.97070884973738,267.9379690903884L75.52962716994749,244.63901525644155L75.6631500572986,329.09772290449877L75.98481472777326,241.7266460271982L76.05044768186674,301.4302152266869L76.08628851099346,324.72916906063375L76.28490267743864,243.1828306418199L76.36064689818753,294.14929215357853L76.49940597719947,254.83230755879327L77.29648073881069,147.07464607678926L77.4597957511286,282.4998152366051L77.55476943435602,279.5874460073618L77.71212602168056,281.0436306219835L77.82425274655553,267.9379690903884L78.19764737947251,323.27298444601206L79.1435022075845,317.44824598752535L79.19460021586086,311.62350752903865L79.2470524116357,310.16732291441696L79.75451160690321,193.67255374468292L79.81147776100634,307.25495368517363L80.0840305648691,253.3761229441716L80.69016488919324,166.00504606687105L80.85004929318163,237.35809218333318L81.1748737344861,115.03858455511244L81.20710339695015,326.1853536752554L81.46196148416598,304.34258445593025L81.7585285463353,144.1622768475459L83.00429076577956,291.2369229243352L83.9874308896833,177.65452298384446L84.80418650960591,186.39163067157452L85.08296857596171,155.81175376451932L85.2200123508089,257.74467678803666L86.40248887449039,267.9379690903884L87.10729832787116,225.70861526635977L88.06371581847137,109.21384609662567L88.46717341385484,58.24738458486706L89.57832939594915,58.24738458486706L89.9818772704992,58.24738458486706L90.71079126135308,107.75766148200404L90.96032287774152,173.28596913997944L91.3932114814255,58.24738458486706L92.19795997219481,58.24738458486706L92.59591053841775,58.24738458486706L93.3090256751226,125.23187685746416L93.70986517467563,83.00252303343552L94.11007272006273,58.24738458486706L95.32477890620827,58.24738458486706L96.53984620902007,58.24738458486706L98.4574659860485,133.96898454519416L99.22917230185469,58.24738458486706L99.99284377183649,96.10818456503063L100.40370425887836,58.24738458486706L102.15295339026119,135.42516915981585L103.2864986056639,160.18030760838437L103.69492155520848,58.24738458486706L103.97460641322996,149.98701530603265L104.38438355027304,58.24738458486706L105.187958411877,58.24738458486706L106.85622713085013,58.24738458486706L107.3329914094852,149.98701530603265L108.09034333780737,109.21384609662567L108.91603659522002,58.24738458486706L110.967088980433,65.52830765797546L111.55372300477887,227.16479988098143L113.18885926962228,58.24738458486706L114.87753108023935,58.24738458486706L115.6214314127432,101.93292302351733L116.02416677479412,58.24738458486706L117.25837326091793,58.24738458486706L118.04587843087315,64.07212304335371L118.4408497845994,58.24738458486706L118.83997397998768,58.24738458486706L119.2414454337067,262.1132306319017L119.66738254156509,58.24738458486706L120.07255544111331,58.24738458486706L121.7103098017871,58.24738458486706L122.14103170547351,58.24738458486706L122.94298154207931,58.24738458486706L123.9514901117881,58.24738458486706L125.57362617664602,58.24738458486706L125.96462524704334,78.63396918957051L126.3654647465964,58.24738458486706L126.78616566279398,58.24738458486706L127.32946568718815,257.74467678803666L128.37092615269356,112.12621532586905L128.76661973975231,58.24738458486706L129.1959874559402,58.24738458486706L130.36022758797537,84.45870764805721L130.7692824916859,58.24738458486706L131.6144760490768,58.24738458486706L133.9055807381888,64.07212304335371L134.71014867062502,58.24738458486706L135.85877050684422,58.24738458486706L136.28867989803152,58.24738458486706L136.99944777640565,58.24738458486706L137.39514136346443,58.24738458486706L139.13084861986238,133.96898454519416L139.52311159859164,69.89686150184048L140.31594323937426,58.24738458486706L141.12159452180927,58.24738458486706L141.5185520172,58.24738458486706L141.85926559182005,113.58239994049075L143.06196464881234,58.24738458486706L143.25732876526115,211.146769120143L144.13782147677935,116.49476916973407L144.28226814328497,249.00756910030657L145.01993921329577,58.24738458486706L145.3474720295972,109.21384609662567L146.1810195745011,58.24738458486706L147.5293389271643,58.24738458486706L147.87546925177838,99.02055379427395L148.3156704679542,58.24738458486706L149.13639837120573,58.24738458486706L149.34918636680177,203.8658460470346L150.56425366961358,58.24738458486706L150.99452417746713,58.24738458486706L151.3966275853521,58.24738458486706L151.79981434323588,58.24738458486706L152.60221557567448,61.15975381411039L153.00603428772422,58.24738458486706L153.4381103789091,58.24738458486706L153.84337355762386,58.24738458486706L157.50771464937128,58.24738458486706L157.8988039989352,58.24738458486706L158.73704606050055,58.24738458486706L159.79909017598297,58.24738458486706L162.63764773115113,58.24738458486706L163.03433438904216,58.24738458486706L164.68382504136957,58.24738458486706L165.08953961591718,58.24738458486706L165.49769172796212,58.24738458486706L166.34902426867944,58.24738458486706L167.1640645844373,58.24738458486706L168.8163538909283,58.24738458486706L172.2419968662752,58.24738458486706L172.63805157000024,71.35304611646211L172.9734386737929,106.30147686738235L173.40379946081305,58.24738458486706L174.22958299739227,58.24738458486706L174.54637259287233,132.5127999305725L175.77037753317418,58.24738458486706L177.00304927346636,58.24738458486706L179.71169510794613,94.65199995040894L180.1288751366476,58.24738458486706L180.4709428987662,100.47673840889564L180.84108748168674,100.47673840889564L181.49046552679604,173.28596913997944L181.83072770558329,119.4071383989774L182.1133014969349,147.07464607678926L182.94080033767887,58.24738458486706L183.2401660540117,132.5127999305725L183.60615779527024,107.75766148200404L184.41794806103175,58.24738458486706L185.19344610183367,58.24738458486706L185.6100844555358,59.7035691994887L187.19060182460677,58.24738458486706L189.89825458825425,58.24738458486706L191.1111551910685,58.24738458486706L191.51253636562092,58.24738458486706L192.29453450641563,58.24738458486706L193.09197038469313,58.24738458486706L194.31678783749408,58.24738458486706L198.60838857854202,58.24738458486706L199.75547566892965,58.24738458486706L200.14791920599205,58.24738458486706L200.52664030973642,58.24738458486706L201.3144163171914,58.24738458486706L202.07619192467527,58.24738458486706L202.45410051592054,58.24738458486706L203.22860548589026,58.24738458486706L205.12825970877208,58.24738458486706L205.5419188499775,58.24738458486706L207.80584950995308,58.24738458486706L208.63063997570006,58.24738458486706L209.04339632523985,58.24738458486706L209.42509664148088,71.35304611646211L209.82259581187103,58.24738458486706L210.22262279892496,58.24738458486706L210.6500043734484,58.24738458486706L211.03847562718192,58.24738458486706L211.43425949340727,58.24738458486706L211.82462660963864,58.24738458486706L212.2161673550354,58.24738458486706L213.03111739162668,58.24738458486706L214.21657312780482,58.24738458486706L214.6282461273458,58.24738458486706L215.03937745188736,58.24738458486706L215.85622335097653,58.24738458486706L217.4367407200475,58.24738458486706L218.12575131927923,84.45870764805721L218.83317886849045,117.95095378435576L220.4087308834003,58.24738458486706L220.73120806637402,109.21384609662567L221.12202657843824,58.24738458486706L221.91043454005916,58.24738458486706L222.69207156418756,58.24738458486706L223.5011534549521,58.24738458486706L224.29118644157114,58.24738458486706L224.68019937030408,58.24738458486706L225.87062046064335,58.24738458486706L226.5508739807182,128.14424608670748L226.93609518445527,58.24738458486706L227.26606553825403,106.30147686738235L227.4960968546642,179.11070759846612L227.9145407916976,58.24738458486706L228.3000328329344,58.24738458486706L228.97333485718366,126.68806147208582L229.35286847342715,71.35304611646211L231.0556238340285,58.24738458486706L231.35273257119718,131.05661531595084L231.9642836455153,133.96898454519416L232.27962877433035,122.31950762822078L232.5320493240489,164.54886145224938L233.244893623254,147.07464607678926L233.83531937259562,163.09267683762772L234.39432797197236,126.68806147208582L234.60197005507413,297.06166138282185L235.01030272545214,237.35809218333318L235.56263066650294,177.65452298384446L235.6703337122162,269.39415370501007L235.8458364120205,227.16479988098143L236.57303509870962,163.09267683762772L237.58127283091875,144.1622768475459L237.75912278905378,247.5513844856849L238.43522346746653,58.24738458486706L238.79968046289346,88.82726149192223L239.3914603997336,135.42516915981585L240.9440815063357,103.38910763813902L242.85781927920175,58.24738458486706L245.6989949302004,58.24738458486706L246.1083206714107,58.24738458486706L246.9200206580056,58.24738458486706L247.32934639921578,58.24738458486706L247.73659571959504,58.24738458486706L248.1682204149471,58.24738458486706L248.57158773116402,58.24738458486706L248.9746842098812,58.24738458486706L249.79306485480203,58.24738458486706L250.1982377543502,58.24738458486706L251.85693688166737,58.24738458486706L252.2727627228703,58.24738458486706L253.0912336469577,58.24738458486706L253.95204550016453,58.24738458486706L255.1711753654718,58.24738458486706L256.0139313853654,58.24738458486706L256.42614605990576,58.24738458486706L256.84016631777746,58.24738458486706L258.0889077497184,58.24738458486706L258.50238633259073,58.24738458486706L258.9579350070827,58.24738458486706L259.26145356507766,133.96898454519416L259.6681612104574,58.24738458486706L260.4984587053649,58.24738458486706L260.915097059067,58.24738458486706L261.36297200440094,58.24738458486706L262.1835193493194,58.24738458486706L262.58399773220617,58.24738458486706L263.00668479006816,58.24738458486706L263.41835778960916,58.24738458486706L263.8281349266522,58.24738458486706L264.27086395949186,58.24738458486706L265.09204325857615,58.24738458486706L265.5049801664491,58.24738458486706L266.7559785775542,58.24738458486706L268.35933657576635,58.24738458486706L269.58650128689794,58.24738458486706L269.9849935281203,58.24738458486706L270.3789718110144,58.24738458486706L271.19581771010354,58.24738458486706L271.61480332213637,58.24738458486706L272.0366778674993,58.24738458486706L272.435711783721,58.24738458486706L273.2385644119924,58.24738458486706L273.63380660321843,58.24738458486706L274.0292293527775,58.24738458486706L275.63574712181946,58.24738458486706L277.2020906617396,58.24738458486706L277.5799089738183,58.24738458486706L278.3421359771351,58.24738458486706L278.720947360046,58.24738458486706L279.0999393012901,58.24738458486706L279.5082719716681,58.24738458486706L279.89259038373956,58.24738458486706L280.27726991247727,58.24738458486706L281.40747479871703,58.24738458486706L281.8131893732647,58.24738458486706L284.0871410207291,58.24738458486706L284.8897228115008,58.24738458486706L285.27602736523676,58.24738458486706L285.659352706476,58.24738458486706L286.0531504310369,58.24738458486706L286.8451695593204,58.24738458486706L288.0016456830309,58.24738458486706L288.38388767427136,58.24738458486706L289.54433608131075,58.24738458486706L289.9337101267099,58.24738458486706L290.3210980304446,58.24738458486706L291.0699637171096,58.24738458486706L291.85430911623496,58.24738458486706L293.00654211911683,58.24738458486706L293.3933883478522,58.24738458486706L294.18351161363785,58.24738458486706L295.33267512485645,58.24738458486706L295.72069498275715,58.24738458486706L296.1086245614912,58.24738458486706L296.89937978144286,58.24738458486706L297.2841495893471,58.24738458486706L297.66476655558944,58.24738458486706L298.4273546755724,58.24738458486706L298.82043016680075,58.24738458486706L299.2471797871583,58.24738458486706L301.1593828141927,58.24738458486706L302.7283444499433,58.24738458486706L303.1116697911825,58.24738458486706L303.88184136115706,58.24738458486706L304.6760271894382,58.24738458486706L305.42444148027033,58.24738458486706L305.7986486256864,58.24738458486706L306.1791753127621,58.24738458486706L306.59518171229826,58.24738458486706L306.9766111910396,58.24738458486706L307.35181140728787,58.24738458486706L308.1092536147766,58.24738458486706L308.88637668057675,58.24738458486706L309.660971929713,58.24738458486706L310.7869336951242,58.24738458486706L311.56893183591893,58.24738458486706L311.9562294604871,58.24738458486706L312.3378394975615,58.24738458486706L313.87339784168273,58.24738458486706L314.6316525616705,58.24738458486706L315.0225613529013,58.24738458486706L315.7799132812235,58.24738458486706L316.94875765075346,58.24738458486706L317.6811022499369,58.24738458486706L318.0581983286831,58.24738458486706L318.44134311158916,58.24738458486706L319.61533339361347,58.24738458486706L320.7588093173385,58.24738458486706L321.1241691044311,69.89686150184048L321.82229789948593,58.24738458486706L322.5935528194592,62.61593842873208L323.3400712477935,69.89686150184048L325.27890662896493,58.24738458486706L326.02488338229983,58.24738458486706L326.4353827526754,58.24738458486706L326.8271943355719,58.24738458486706L327.21557531013883,58.24738458486706L328.36627356718907,58.24738458486706L330.68446200627085,58.24738458486706L331.48514793454467,58.24738458486706L331.8646815507882,58.24738458486706L332.2457499128633,58.24738458486706L332.6255543666065,58.24738458486706L332.9998517911891,58.24738458486706L334.55337568945686,58.24738458486706L335.3180402302708,58.24738458486706L335.6998308256784,58.24738458486706L336.8813142785277,58.24738458486706L337.2570561697754,58.24738458486706L337.63839536935023,58.24738458486706L338.01738731059424,58.24738458486706L338.39520562267296,58.24738458486706L339.19643322594624,58.24738458486706L339.57569600469003,58.24738458486706L339.9464725417766,58.24738458486706L340.3275409038517,58.24738458486706L341.11585858630605,58.24738458486706L342.25111910587344,58.24738458486706L343.01668643835313,58.24738458486706L343.4185190087384,58.24738458486706L344.1858016453828,58.24738458486706L344.57129368661964,58.24738458486706L345.73273516449126,58.24738458486706L346.1441373265326,58.24738458486706L346.89219050069846,58.24738458486706L347.2774117044355,58.24738458486706L349.9858769805822,58.24738458486706L350.37046623015334,58.24738458486706L350.7448539339025,58.24738458486706L351.15354772094685,58.24738458486706L351.53587999135385,58.24738458486706L351.92272622008915,58.24738458486706L352.30225983633267,58.24738458486706L353.0757717354701,58.24738458486706L353.48897948084266,58.24738458486706L353.8748326387458,58.24738458486706L355.0322115541219,58.24738458486706L355.44198869116497,58.24738458486706L355.77421602412784,104.84529225276066L356.1830000903387,58.24738458486706L356.8136903479688,122.31950762822078L358.6680244292345,87.37107687730054L358.9378688581003,157.267938379141L359.2187273452871,138.33753838905923L359.7163461113988,142.70609223292425L361.0763114765491,104.84529225276066L361.98271430887183,141.24990761830256L363.07102966182487,71.35304611646211L364.60794219344456,74.26541534570543L365.7525917463348,58.24738458486706L366.1931540791769,58.24738458486706L366.5774724912484,58.24738458486706L367.36010258620905,58.24738458486706L367.73981676078563,58.24738458486706L368.12404489369055,58.24738458486706L368.98395395523175,58.24738458486706L369.36448064230746,58.24738458486706L370.15198581226264,58.24738458486706L370.9481577822082,58.24738458486706L371.331573402614,58.24738458486706L372.061299905967,58.24738458486706L372.83309650093975,58.24738458486706L373.2185885421765,58.24738458486706L374.0180105621185,58.24738458486706L374.6767776405506,58.24738458486706L375.0738254151079,58.24738458486706L375.487755393813,58.24738458486706L375.86918487255434,58.24738458486706L376.9453125380211,152.89938453527597L377.33793663341663,58.24738458486706L377.718734157992,58.24738458486706L378.9151136733247,58.24738458486706L379.29843901456394,58.24738458486706L382.47030725269383,58.24738458486706L383.6662353721936,58.24738458486706L384.0931655508843,58.24738458486706L384.8641496333579,58.24738458486706L385.6585160199721,58.24738458486706L386.0434663862095,58.24738458486706L387.24463069737016,58.24738458486706L387.637615909432,58.24738458486706L388.4222321460571,58.24738458486706L388.839953849758,58.24738458486706L389.2425086534758,58.24738458486706L389.51334615317376,157.267938379141L390.6815585685378,58.24738458486706L393.82733612753015,58.24738458486706L394.23476600624247,58.24738458486706L394.6386749974588,58.24738458486706L395.42184676741886,58.24738458486706L396.20366434988034,58.24738458486706L396.6229207994129,58.24738458486706L397.029989561459,58.24738458486706L397.81577942724954,58.24738458486706L398.60021510554145,58.24738458486706L398.9861585426111,58.24738458486706L399.4071302963084,58.24738458486706L400.57841220333563,58.24738458486706L400.9704043445652,58.24738458486706L401.361313135796,58.24738458486706L403.3628925377309,58.24738458486706L404.16457153683695,58.24738458486706L404.5781403988758,58.24738458486706L405.3567982105076,58.24738458486706L405.7517695642338,58.24738458486706L406.5206772258764,58.24738458486706L408.89863047322484,58.24738458486706L409.32727595608037,58.24738458486706L410.131934167683,58.24738458486706L410.93234925845724,58.24738458486706L412.57579120662473,58.24738458486706L413.3708798265714,58.24738458486706L414.1598294631917,58.24738458486706L414.9727933581186,58.24738458486706L415.76156243640577,58.24738458486706L416.5636025521781,58.24738458486706L416.95712943923934,58.24738458486706L417.3744900262739,58.24738458486706L417.7803851591547,58.24738458486706L418.1780648878779,58.24738458486706L419.79559671524095,58.24738458486706L420.60892172683396,58.24738458486706L421.00317084722775,58.24738458486706L423.43375684868425,58.24738458486706L424.2450957186129,58.24738458486706L425.0790946593496,58.24738458486706L425.48264253389954,58.24738458486706L425.9030726125975,58.24738458486706L428.2963733182621,58.24738458486706L429.48255128777276,58.24738458486706L430.29407071603464,58.24738458486706L431.52024235633405,58.24738458486706L432.70813563000945,58.24738458486706L433.14752433368625,58.24738458486706L433.93909206613694,58.24738458486706L434.3299105782012,58.24738458486706L434.7272291902581,58.24738458486706L435.1178671439892,58.24738458486706L435.93552555557744,58.24738458486706L436.33636505513056,58.24738458486706L437.13109255841096,58.24738458486706L437.52705698296955,58.24738458486706L437.9215769408629,58.24738458486706L439.1621932478129,58.24738458486706L439.57919271818133,58.24738458486706L440.3165929506924,58.24738458486706L443.52168392211854,58.24738458486706L443.9260443091677,58.24738458486706L444.31884896289625,58.24738458486706L444.7105702666262,58.24738458486706L445.9120054152865,58.24738458486706L446.311310169008,58.24738458486706L446.7065523602339,58.24738458486706L447.91719598388397,58.24738458486706L448.3071117042826,58.24738458486706L448.7305209954771,58.24738458486706L449.9244629733125,58.24738458486706L454.72189788462975,58.24738458486706L455.91123562497023,58.24738458486706L456.6150520075188,58.24738458486706L457.007134427915,58.24738458486706L457.6742974688377,149.98701530603265L458.08199818504977,58.24738458486706L459.3167463461729,58.24738458486706L460.5305497406528,58.24738458486706L460.9320211943718,58.24738458486706L461.3318676230927,58.24738458486706L461.756360264286,58.24738458486706L462.1566580888396,58.24738458486706L462.54395571340774,58.24738458486706L462.937482600469,58.24738458486706L463.3360651208579,58.24738458486706L464.1541749282789,58.24738458486706L464.94682601072844,58.24738458486706L465.22046216459,158.72412299376265L466.0067034262133,58.24738458486706L466.82219513780404,58.24738458486706L467.43663514545227,203.8658460470346L467.8600444366468,58.24738458486706L468.2527588112089,58.24738458486706L468.6444801149388,58.24738458486706L469.05344473948276,58.24738458486706L469.4891319973302,58.24738458486706L471.08210789138735,58.24738458486706L473.1035487099667,58.24738458486706L473.5038465345204,58.24738458486706L474.2888238878117,58.24738458486706L474.7124137373394,58.24738458486706L476.3122508480555,58.24738458486706L476.71137504344375,58.24738458486706L477.1392080138001,58.24738458486706L477.9241853670914,58.24738458486706L478.9764793325847,58.24738458486706L480.20039399372,58.24738458486706L480.99855210533,58.24738458486706L481.79327960861053,58.24738458486706L482.19123017483344,58.24738458486706L483.0039232322606,58.24738458486706L483.39979737765253,58.24738458486706L484.4320493681681,120.86332301359909L484.8523891676995,58.24738458486706L485.2568398339152,58.24738458486706L486.0627619538498,58.24738458486706L486.46928904089657,58.24738458486706L486.8638089987899,58.24738458486706L487.5594099771811,78.63396918957051L487.95194379341,58.24738458486706L488.3089076180119,83.00252303343552L488.6563018509579,88.82726149192223L489.0594886088416,58.24738458486706L489.42051499593913,81.54633841881383L491.4599213686651,58.24738458486706L491.8548927223914,58.24738458486706L492.714711504766,58.24738458486706L494.2996525529987,58.24738458486706L494.69083218172915,58.24738458486706L495.5279908932957,58.24738458486706L496.99881907498894,58.24738458486706L497.799866119929,58.24738458486706L498.63305254816663,58.24738458486706L499.42425916395104,58.24738458486706L499.8310570884976,58.24738458486706L500.2171810839003,58.24738458486706L500.6395973042626,58.24738458486706L501.43495676170915,58.24738458486706L502.6086762062337,58.24738458486706L502.9956127141356,58.24738458486706L503.81588922155424,58.24738458486706L504.21582592944156,58.24738458486706L504.6177487789935,58.24738458486706L505.4345946780826,58.24738458486706L507.0522167846123,58.24738458486706L507.8336732504076,58.24738458486706L508.2249431583046,58.24738458486706L509.0573170740432,58.24738458486706L509.47061509858224,58.24738458486706L510.6446956597731,58.24738458486706L511.06837578846734,58.24738458486706L513.0345657571083,97.56436917965226L513.4421761941538,58.24738458486706L513.8780440103344,58.24738458486706L514.2848419348809,58.24738458486706L515.0747846423333,58.24738458486706L515.7290377624372,161.63649222300603L516.1194048786685,58.24738458486706L516.460028174122,119.4071383989774L516.8555412028477,58.24738458486706L517.2464499940786,58.24738458486706L517.5985387436859,97.56436917965226L518.6005472134019,117.95095378435576L519.7348146621372,125.23187685746416L520.3258723656448,139.7937230036809L520.9682086357618,66.9844922725971L521.2096151271594,173.28596913997944L521.5772318934162,106.30147686738235L521.8597154056013,142.70609223292425L522.128295926135,148.53083069141096L523.2462228457218,158.72412299376265L524.430234115235,161.63649222300603L524.9087136980347,186.39163067157452L525.123939231128,190.76018451543953L525.7834285428927,231.53335372484648L526.0979611592086,123.77569224284244L526.3579651589187,161.63649222300603L527.0079751581939,198.04110758854793L527.9268365155027,93.19581533578724L528.1804306943866,164.54886145224938L528.3941214816483,198.04110758854793L528.9816582976598,119.4071383989774L529.2365163848757,164.54886145224938L529.5812925219913,117.95095378435576L530.5611825958986,94.65199995040894L531.1347261410924,163.09267683762772L531.4011399616287,152.89938453527597L531.6401991946955,173.28596913997944L531.9051685485666,149.98701530603265L532.2272846148742,145.61846146216757L532.4816010270906,166.00504606687105L533.23850155958,58.24738458486706L533.5804790425319,106.30147686738235L534.734337070412,69.89686150184048L536.5693514100326,131.05661531595084L541.3590223130252,58.24738458486706L541.6522490460316,147.07464607678926L542.0828806705513,58.24738458486706L542.4969009284231,58.24738458486706L544.1631835057318,58.24738458486706L545.4162583376678,58.24738458486706L545.852216433015,58.24738458486706L546.6321381529788,58.24738458486706L547.0483251108479,58.24738458486706L547.4609911812212,58.24738458486706L547.8706780390977,58.24738458486706L548.7456637214555,58.24738458486706L549.5361481039073,58.24738458486706L549.9475502659485,58.24738458486706L550.2869096530702,109.21384609662567L551.0860608355124,58.24738458486706L551.5455817933333,58.24738458486706L551.973324484523,58.24738458486706L552.7949551794402,72.8092307310838L553.5034660786501,58.24738458486706L555.8700441510113,91.73963072116561L556.6504172668078,58.24738458486706L558.670865014555,85.91489226267885L559.0919270474188,58.24738458486706L560.6783125623166,84.45870764805721L562.7140174892133,59.7035691994887L563.1370656637416,58.24738458486706L564.7814104035747,58.24738458486706L566.4506721933801,58.24738458486706L567.6606838628642,58.24738458486706L568.9621483280797,58.24738458486706L569.3786964026152,58.24738458486706L569.7838693021635,58.24738458486706L571.0520207549162,58.24738458486706L571.4658604544546,58.24738458486706L572.698893311413,58.24738458486706L573.5526633896277,58.24738458486706L573.9638849933358,58.24738458486706L574.3752871553771,58.24738458486706L577.2630468563237,62.61593842873208L577.6853727975194,58.24738458486706L578.1054417595512,58.24738458486706L578.4653847966498,93.19581533578724L579.3592388248198,58.24738458486706L579.7854467701778,58.24738458486706L580.2060574072088,58.24738458486706L580.5499307526587,106.30147686738235L580.9591662147025,65.52830765797546L581.2982547643243,109.21384609662567L581.6428503431067,125.23187685746416L581.9214518511295,151.4431999206543L582.2567486757555,107.75766148200404L583.1592695039159,133.96898454519416L583.8551413198066,99.02055379427395L585.1689740308417,192.21636913006122L585.4016234430821,186.39163067157452L585.6682178219517,170.37359991073606L586.0389943590382,149.98701530603265L587.945509798579,168.9174152961144L588.4688581271621,170.37359991073606L589.7727601298749,195.12873835930458L590.015881925437,182.02307682770947L590.9483754368973,166.00504606687105L591.443737223845,164.54886145224938L591.6780116610838,184.93544605695286L592.1968460313385,164.54886145224938L592.445745693561,195.12873835930458L592.925850301359,179.11070759846612L593.100359930331,227.16479988098143L594.3075729456516,221.34006142249473L594.4523807288235,241.7266460271982L594.5742576036876,257.74467678803666L595.8190267522996,161.63649222300603L596.0562804020351,182.02307682770947L598.7500301740314,58.24738458486706L599.129744348608,74.26541534570543L600.2291640390488,80.0901538041922L600.621427017778,83.00252303343552L601.0280443839913,58.24738458486706L601.792167249806,58.24738458486706L602.5721792489362,80.0901538041922L603.3883931938594,58.24738458486706L604.5587723092211,77.17778457494882L604.9531117087813,58.24738458486706L605.7314084037469,58.24738458486706L606.1679081740934,58.24738458486706L606.9815943023528,72.8092307310838L607.8205585972507,58.24738458486706L608.2134535301459,58.24738458486706L609.021993745911,58.24738458486706L609.4143470038068,58.24738458486706L610.980239147894,58.24738458486706L611.3955233140978,58.24738458486706L612.1929591923753,58.24738458486706L612.5796248627775,58.24738458486706L612.9851588789919,58.24738458486706L613.4042347701912,58.24738458486706L614.2749773317204,58.24738458486706L614.6649833312855,64.07212304335371L615.0839689433183,58.24738458486706L615.5249826719931,58.24738458486706L617.2036334951214,58.24738458486706L618.050542356677,58.24738458486706L618.4637501020497,58.24738458486706L618.8593534099418,58.24738458486706L619.6743937256998,58.24738458486706L620.4961146997836,58.24738458486706L621.3276761030229,58.24738458486706L622.1506609854385,58.24738458486706L622.5739799974665,58.24738458486706L622.979333455348,58.24738458486706L623.8201936127437,58.24738458486706L624.2187761331326,58.24738458486706L624.6073376660327,58.24738458486706L625.0290316530625,58.24738458486706L625.4236418901223,58.24738458486706L625.839738568825,58.24738458486706L626.6429523137627,58.24738458486706L627.0409028799857,58.24738458486706L628.2763732744414,58.24738458486706L628.6799211489915,58.24738458486706L629.5025449147408,58.24738458486706L629.9102456309529,58.24738458486706L631.1356950379198,58.24738458486706L631.540055424969,58.24738458486706L631.9446866495177,58.24738458486706L632.3468803365693,58.24738458486706L632.7489837444542,58.24738458486706L633.5777464935302,58.24738458486706L635.2201050916989,58.24738458486706L636.0727918199148,58.24738458486706L636.4757980194654,58.24738458486706L636.8819639898459,58.24738458486706L638.0841213718386,58.24738458486706L638.4742176505704,58.24738458486706L639.3050568204774,58.24738458486706L640.9315262853303,58.24738458486706L641.3619773515171,58.24738458486706L641.7533375385806,58.24738458486706L642.1655522131209,58.24738458486706L642.9835717413756,58.24738458486706L644.6127495812257,58.24738458486706L645.0159363391094,58.24738458486706L645.8375670340265,58.24738458486706L646.2384968127461,58.24738458486706L646.6404196622981,58.24738458486706L647.0810722743066,58.24738458486706L647.8996334775605,58.24738458486706L649.1257148386934,58.24738458486706L649.555985346547,58.24738458486706L649.9339842169588,72.8092307310838L650.3418654915041,58.24738458486706L650.7494759285496,58.24738458486706L651.8338189981739,96.10818456503063L652.2707701643532,58.24738458486706L653.8255579709529,90.28344610654392L654.1522782747553,112.12621532586905L654.9304846905543,83.00252303343552L655.3661719484016,58.24738458486706L655.7240385646693,93.19581533578724L657.2936321545858,107.75766148200404L658.4923589282491,58.24738458486706L659.2495302982383,58.24738458486706L660.3979715761244,58.24738458486706L660.7975471673454,78.63396918957051L661.208497933554,58.24738458486706L661.6196292580954,58.24738458486706L662.021190990981,58.24738458486706L662.8156476567618,58.24738458486706L663.2452862104494,58.24738458486706L663.6590356308214,58.24738458486706L664.8967630044414,58.24738458486706L665.3020261831562,58.24738458486706L666.1220318530751,58.24738458486706L666.5171837651344,58.24738458486706L666.9242525271806,58.24738458486706L668.1362503383291,58.24738458486706L668.962304712408,58.24738458486706L669.3670262161235,58.24738458486706L669.7736435823366,58.24738458486706L670.1692468902289,58.24738458486706L673.0147559412226,58.24738458486706L673.4197482824379,58.24738458486706L674.6662327352145,58.24738458486706L676.7022987787776,58.24738458486706L678.327684893632,58.24738458486706L679.1098635927597,58.24738458486706L679.963091995975,58.24738458486706L680.7814726408957,58.24738458486706L681.1771662279546,61.15975381411039L681.5773737733416,58.24738458486706L681.9681020062394,66.9844922725971L683.6074813919113,58.24738458486706L684.0116612206273,58.24738458486706L684.4099729035165,58.24738458486706L685.2214020526117,58.24738458486706L685.6406585021442,58.24738458486706L686.0482689391896,58.24738458486706L687.6543353123989,58.24738458486706L688.5001608239558,58.24738458486706L689.3104163438857,58.24738458486706L690.1087550138287,58.24738458486706L690.5319837466901,58.24738458486706L691.3594825874341,58.24738458486706L693.0035564897676,58.24738458486706L693.8559723804838,58.24738458486706L694.2751385508496,58.24738458486706L695.4905669703278,58.24738458486706L696.7575447939149,58.24738458486706L698.3703821046166,58.24738458486706L699.2122353328446,58.24738458486706L699.629234803213,58.24738458486706L700.8678649684986,58.24738458486706L702.5332447541415,58.24738458486706L702.937514862024,58.24738458486706L703.3549657282252,58.24738458486706L703.7600483486068,58.24738458486706L704.990643668068,58.24738458486706L705.3891359092904,58.24738458486706L705.7950310421711,58.24738458486706L706.6112449870943,58.24738458486706L707.0469322449418,58.24738458486706L707.4515634694906,58.24738458486706L708.2518882810982,58.24738458486706L708.6536305723171,58.24738458486706L709.884677287611,58.24738458486706L710.2819056205013,58.24738458486706L711.082230432109,58.24738458486706L711.8960068395348,58.24738458486706L712.2933254515918,58.24738458486706L712.7348808552662,58.24738458486706L715.5563756479534,58.24738458486706L715.9631735725,58.24738458486706L716.3714159637113,58.24738458486706L716.7761374674267,58.24738458486706L719.1966122022278,58.24738458486706L719.6096393892673,58.24738458486706L720.0279027679675,58.24738458486706L720.4284714300209,58.24738458486706L720.8603669628725,58.24738458486706L721.6616848453124,58.24738458486706L722.8085913773668,58.24738458486706L724.0358463676652,58.24738458486706L725.6159123409033,58.24738458486706L726.0377868862662,58.24738458486706L726.4435014608138,58.24738458486706L726.8449729145327,58.24738458486706L727.2440068307544,58.24738458486706L728.0292550215456,58.24738458486706L728.419622137777,58.24738458486706L730.0555709151195,58.24738458486706L731.2581796929452,58.24738458486706L731.6769847466448,58.24738458486706L732.8868158577958,58.24738458486706L733.2885581490144,58.24738458486706L733.6890365319013,58.24738458486706L734.1251751855816,58.24738458486706L734.5375704184551,58.24738458486706L735.3320270842358,58.24738458486706L735.7277206712947,58.24738458486706L736.1191711375249,58.24738458486706L736.5201911954111,58.24738458486706L736.9519964490963,58.24738458486706L738.5499376973145,58.24738458486706L738.941749280211,58.24738458486706L739.3298594172783,58.24738458486706L740.5417669492602,58.24738458486706L741.3164524775631,58.24738458486706L741.7045626146303,58.24738458486706L742.1258052058272,58.24738458486706L742.9171021007783,58.24738458486706L743.313427642003,58.24738458486706L743.7149893748885,58.24738458486706L744.4995153323472,58.24738458486706L744.9269871860371,58.24738458486706L746.1222833513709,58.24738458486706L746.900670325503,58.24738458486706L747.7445096953953,58.24738458486706L748.1495923157771,58.24738458486706L748.9540699690467,58.24738458486706L750.1706720176901,58.24738458486706L750.9745177167938,58.24738458486706L751.3619056205285,58.24738458486706L751.7601270242511,58.24738458486706L752.5612643483578,58.24738458486706L753.3936382640965,58.24738458486706L753.7896929678213,58.24738458486706L754.1782545007216,58.24738458486706L755.7623830364552,58.24738458486706L756.1673753776703,58.24738458486706L756.9586722726211,58.24738458486706L757.7316424967593,58.24738458486706L759.7591320194986,58.24738458486706L761.377837476027,58.24738458486706L761.7782255797471,58.24738458486706L762.1704885584764,58.24738458486706L762.5595917663759,58.24738458486706L767.3854646151615,58.24738458486706L768.1812754684408,58.24738458486706L769.0066978883536,58.24738458486706" fill="none"></path></g></g></g></g></g></g><g transform="translate(39, 378)" clip-path="url(#clip_1)"><clipPath id="clip_1"><rect width="780" height="21"></rect></clipPath><g><g><line x1="0" y1="0" x2="0" y2="5" style="visibility: inherit;" fill="rgb(0, 0, 0)" stroke="rgb(204, 204, 204)" stroke-width="1px"></line><line x1="65.00099992752075" y1="0" x2="65.00099992752075" y2="5" style="visibility: inherit;" fill="rgb(0, 0, 0)" stroke="rgb(204, 204, 204)" stroke-width="1px"></line><line x1="130.0019998550415" y1="0" x2="130.0019998550415" y2="5" style="visibility: inherit;" fill="rgb(0, 0, 0)" stroke="rgb(204, 204, 204)" stroke-width="1px"></line><line x1="195.00299978256226" y1="0" x2="195.00299978256226" y2="5" style="visibility: inherit;" fill="rgb(0, 0, 0)" stroke="rgb(204, 204, 204)" stroke-width="1px"></line><line x1="260.003999710083" y1="0" x2="260.003999710083" y2="5" style="visibility: inherit;" fill="rgb(0, 0, 0)" stroke="rgb(204, 204, 204)" stroke-width="1px"></line><line x1="325.0049996376037" y1="0" x2="325.0049996376037" y2="5" style="visibility: inherit;" fill="rgb(0, 0, 0)" stroke="rgb(204, 204, 204)" stroke-width="1px"></line><line x1="390.0059995651244" y1="0" x2="390.0059995651244" y2="5" style="visibility: inherit;" fill="rgb(0, 0, 0)" stroke="rgb(204, 204, 204)" stroke-width="1px"></line><line x1="455.0069994926452" y1="0" x2="455.0069994926452" y2="5" style="visibility: inherit;" fill="rgb(0, 0, 0)" stroke="rgb(204, 204, 204)" stroke-width="1px"></line><line x1="520.0079994201659" y1="0" x2="520.0079994201659" y2="5" style="visibility: inherit;" fill="rgb(0, 0, 0)" stroke="rgb(204, 204, 204)" stroke-width="1px"></line><line x1="585.0089993476867" y1="0" x2="585.0089993476867" y2="5" style="visibility: inherit;" fill="rgb(0, 0, 0)" stroke="rgb(204, 204, 204)" stroke-width="1px"></line><line x1="650.0099992752074" y1="0" x2="650.0099992752074" y2="5" style="visibility: inherit;" fill="rgb(0, 0, 0)" stroke="rgb(204, 204, 204)" stroke-width="1px"></line><line x1="715.0109992027283" y1="0" x2="715.0109992027283" y2="5" style="visibility: inherit;" fill="rgb(0, 0, 0)" stroke="rgb(204, 204, 204)" stroke-width="1px"></line><line x1="780.011999130249" y1="0" x2="780.011999130249" y2="5" style="visibility: inherit;" fill="rgb(0, 0, 0)" stroke="rgb(204, 204, 204)" stroke-width="1px"></line></g><g transform="translate(0, 8)"><text style="text-anchor: middle; visibility: hidden; font-family: &quot;Helvetica Neue&quot;, sans-serif; font-size: 12px; font-weight: 200;" x="0" y="0" dx="0em" dy="0.95em" fill="rgb(50, 49, 63)" stroke="none" stroke-width="1px">-0.2</text><text style="text-anchor: middle; visibility: hidden; font-family: &quot;Helvetica Neue&quot;, sans-serif; font-size: 12px; font-weight: 200;" x="65.00099992752075" y="0" dx="0em" dy="0.95em" fill="rgb(50, 49, 63)" stroke="none" stroke-width="1px">0</text><text style="text-anchor: middle; visibility: hidden; font-family: &quot;Helvetica Neue&quot;, sans-serif; font-size: 12px; font-weight: 200;" x="130.0019998550415" y="0" dx="0em" dy="0.95em" fill="rgb(50, 49, 63)" stroke="none" stroke-width="1px">0.2</text><text style="text-anchor: middle; visibility: hidden; font-family: &quot;Helvetica Neue&quot;, sans-serif; font-size: 12px; font-weight: 200;" x="195.00299978256226" y="0" dx="0em" dy="0.95em" fill="rgb(50, 49, 63)" stroke="none" stroke-width="1px">0.4</text><text style="text-anchor: middle; visibility: hidden; font-family: &quot;Helvetica Neue&quot;, sans-serif; font-size: 12px; font-weight: 200;" x="260.003999710083" y="0" dx="0em" dy="0.95em" fill="rgb(50, 49, 63)" stroke="none" stroke-width="1px">0.6</text><text style="text-anchor: middle; visibility: hidden; font-family: &quot;Helvetica Neue&quot;, sans-serif; font-size: 12px; font-weight: 200;" x="325.0049996376037" y="0" dx="0em" dy="0.95em" fill="rgb(50, 49, 63)" stroke="none" stroke-width="1px">0.8</text><text style="text-anchor: middle; visibility: hidden; font-family: &quot;Helvetica Neue&quot;, sans-serif; font-size: 12px; font-weight: 200;" x="390.0059995651244" y="0" dx="0em" dy="0.95em" fill="rgb(50, 49, 63)" stroke="none" stroke-width="1px">1</text><text style="text-anchor: middle; visibility: hidden; font-family: &quot;Helvetica Neue&quot;, sans-serif; font-size: 12px; font-weight: 200;" x="455.0069994926452" y="0" dx="0em" dy="0.95em" fill="rgb(50, 49, 63)" stroke="none" stroke-width="1px">1.2</text><text style="text-anchor: middle; visibility: hidden; font-family: &quot;Helvetica Neue&quot;, sans-serif; font-size: 12px; font-weight: 200;" x="520.0079994201659" y="0" dx="0em" dy="0.95em" fill="rgb(50, 49, 63)" stroke="none" stroke-width="1px">1.4</text><text style="text-anchor: middle; visibility: hidden; font-family: &quot;Helvetica Neue&quot;, sans-serif; font-size: 12px; font-weight: 200;" x="585.0089993476867" y="0" dx="0em" dy="0.95em" fill="rgb(50, 49, 63)" stroke="none" stroke-width="1px">1.6</text><text style="text-anchor: middle; visibility: hidden; font-family: &quot;Helvetica Neue&quot;, sans-serif; font-size: 12px; font-weight: 200;" x="650.0099992752074" y="0" dx="0em" dy="0.95em" fill="rgb(50, 49, 63)" stroke="none" stroke-width="1px">1.8</text><text style="text-anchor: middle; visibility: hidden; font-family: &quot;Helvetica Neue&quot;, sans-serif; font-size: 12px; font-weight: 200;" x="715.0109992027283" y="0" dx="0em" dy="0.95em" fill="rgb(50, 49, 63)" stroke="none" stroke-width="1px">2</text><text style="text-anchor: middle; visibility: hidden; font-family: &quot;Helvetica Neue&quot;, sans-serif; font-size: 12px; font-weight: 200;" x="780.011999130249" y="0" dx="0em" dy="0.95em" fill="rgb(50, 49, 63)" stroke="none" stroke-width="1px">2.2</text></g><line x1="0" y1="0" x2="780.011999130249" y2="0" fill="rgb(0, 0, 0)" stroke="rgb(204, 204, 204)" stroke-width="1px"></line></g></g></g></g></svg>